G04 #@! TF.GenerationSoftware,KiCad,Pcbnew,(5.1.2)-2*
G04 #@! TF.CreationDate,2019-08-21T10:42:10+03:00*
G04 #@! TF.ProjectId,atmega328,61746d65-6761-4333-9238-2e6b69636164,rev?*
G04 #@! TF.SameCoordinates,Original*
G04 #@! TF.FileFunction,Soldermask,Top*
G04 #@! TF.FilePolarity,Negative*
%FSLAX46Y46*%
G04 Gerber Fmt 4.6, Leading zero omitted, Abs format (unit mm)*
G04 Created by KiCad (PCBNEW (5.1.2)-2) date 2019-08-21 10:42:10*
%MOMM*%
%LPD*%
G04 APERTURE LIST*
%ADD10C,0.100000*%
G04 APERTURE END LIST*
D10*
G36*
X159528604Y-85438347D02*
G01*
X159565144Y-85449432D01*
X159598821Y-85467433D01*
X159628341Y-85491659D01*
X159652567Y-85521179D01*
X159670568Y-85554856D01*
X159681653Y-85591396D01*
X159686000Y-85635538D01*
X159686000Y-87084462D01*
X159681653Y-87128604D01*
X159670568Y-87165144D01*
X159652567Y-87198821D01*
X159628341Y-87228341D01*
X159598821Y-87252567D01*
X159565144Y-87270568D01*
X159528604Y-87281653D01*
X159484462Y-87286000D01*
X158535538Y-87286000D01*
X158491396Y-87281653D01*
X158454856Y-87270568D01*
X158421179Y-87252567D01*
X158391659Y-87228341D01*
X158367433Y-87198821D01*
X158349432Y-87165144D01*
X158338347Y-87128604D01*
X158334000Y-87084462D01*
X158334000Y-85635538D01*
X158338347Y-85591396D01*
X158349432Y-85554856D01*
X158367433Y-85521179D01*
X158391659Y-85491659D01*
X158421179Y-85467433D01*
X158454856Y-85449432D01*
X158491396Y-85438347D01*
X158535538Y-85434000D01*
X159484462Y-85434000D01*
X159528604Y-85438347D01*
X159528604Y-85438347D01*
G37*
G36*
X147838604Y-85438347D02*
G01*
X147875144Y-85449432D01*
X147908821Y-85467433D01*
X147938341Y-85491659D01*
X147962567Y-85521179D01*
X147980568Y-85554856D01*
X147991653Y-85591396D01*
X147996000Y-85635538D01*
X147996000Y-87084462D01*
X147991653Y-87128604D01*
X147980568Y-87165144D01*
X147962567Y-87198821D01*
X147938341Y-87228341D01*
X147908821Y-87252567D01*
X147875144Y-87270568D01*
X147838604Y-87281653D01*
X147794462Y-87286000D01*
X146845538Y-87286000D01*
X146801396Y-87281653D01*
X146764856Y-87270568D01*
X146731179Y-87252567D01*
X146701659Y-87228341D01*
X146677433Y-87198821D01*
X146659432Y-87165144D01*
X146648347Y-87128604D01*
X146644000Y-87084462D01*
X146644000Y-85635538D01*
X146648347Y-85591396D01*
X146659432Y-85554856D01*
X146677433Y-85521179D01*
X146701659Y-85491659D01*
X146731179Y-85467433D01*
X146764856Y-85449432D01*
X146801396Y-85438347D01*
X146845538Y-85434000D01*
X147794462Y-85434000D01*
X147838604Y-85438347D01*
X147838604Y-85438347D01*
G37*
G36*
X150638604Y-85438347D02*
G01*
X150675144Y-85449432D01*
X150708821Y-85467433D01*
X150738341Y-85491659D01*
X150762567Y-85521179D01*
X150780568Y-85554856D01*
X150791653Y-85591396D01*
X150796000Y-85635538D01*
X150796000Y-87084462D01*
X150791653Y-87128604D01*
X150780568Y-87165144D01*
X150762567Y-87198821D01*
X150738341Y-87228341D01*
X150708821Y-87252567D01*
X150675144Y-87270568D01*
X150638604Y-87281653D01*
X150594462Y-87286000D01*
X149645538Y-87286000D01*
X149601396Y-87281653D01*
X149564856Y-87270568D01*
X149531179Y-87252567D01*
X149501659Y-87228341D01*
X149477433Y-87198821D01*
X149459432Y-87165144D01*
X149448347Y-87128604D01*
X149444000Y-87084462D01*
X149444000Y-85635538D01*
X149448347Y-85591396D01*
X149459432Y-85554856D01*
X149477433Y-85521179D01*
X149501659Y-85491659D01*
X149531179Y-85467433D01*
X149564856Y-85449432D01*
X149601396Y-85438347D01*
X149645538Y-85434000D01*
X150594462Y-85434000D01*
X150638604Y-85438347D01*
X150638604Y-85438347D01*
G37*
G36*
X156728604Y-85438347D02*
G01*
X156765144Y-85449432D01*
X156798821Y-85467433D01*
X156828341Y-85491659D01*
X156852567Y-85521179D01*
X156870568Y-85554856D01*
X156881653Y-85591396D01*
X156886000Y-85635538D01*
X156886000Y-87084462D01*
X156881653Y-87128604D01*
X156870568Y-87165144D01*
X156852567Y-87198821D01*
X156828341Y-87228341D01*
X156798821Y-87252567D01*
X156765144Y-87270568D01*
X156728604Y-87281653D01*
X156684462Y-87286000D01*
X155735538Y-87286000D01*
X155691396Y-87281653D01*
X155654856Y-87270568D01*
X155621179Y-87252567D01*
X155591659Y-87228341D01*
X155567433Y-87198821D01*
X155549432Y-87165144D01*
X155538347Y-87128604D01*
X155534000Y-87084462D01*
X155534000Y-85635538D01*
X155538347Y-85591396D01*
X155549432Y-85554856D01*
X155567433Y-85521179D01*
X155591659Y-85491659D01*
X155621179Y-85467433D01*
X155654856Y-85449432D01*
X155691396Y-85438347D01*
X155735538Y-85434000D01*
X156684462Y-85434000D01*
X156728604Y-85438347D01*
X156728604Y-85438347D01*
G37*
G36*
X133671000Y-83101000D02*
G01*
X130569000Y-83101000D01*
X130569000Y-81999000D01*
X133671000Y-81999000D01*
X133671000Y-83101000D01*
X133671000Y-83101000D01*
G37*
G36*
X138711000Y-83101000D02*
G01*
X135609000Y-83101000D01*
X135609000Y-81999000D01*
X138711000Y-81999000D01*
X138711000Y-83101000D01*
X138711000Y-83101000D01*
G37*
G36*
X150378604Y-80358347D02*
G01*
X150415144Y-80369432D01*
X150448821Y-80387433D01*
X150478341Y-80411659D01*
X150502567Y-80441179D01*
X150520568Y-80474856D01*
X150531653Y-80511396D01*
X150536000Y-80555538D01*
X150536000Y-82004462D01*
X150531653Y-82048604D01*
X150520568Y-82085144D01*
X150502567Y-82118821D01*
X150478341Y-82148341D01*
X150448821Y-82172567D01*
X150415144Y-82190568D01*
X150378604Y-82201653D01*
X150334462Y-82206000D01*
X149385538Y-82206000D01*
X149341396Y-82201653D01*
X149304856Y-82190568D01*
X149271179Y-82172567D01*
X149241659Y-82148341D01*
X149217433Y-82118821D01*
X149199432Y-82085144D01*
X149188347Y-82048604D01*
X149184000Y-82004462D01*
X149184000Y-80555538D01*
X149188347Y-80511396D01*
X149199432Y-80474856D01*
X149217433Y-80441179D01*
X149241659Y-80411659D01*
X149271179Y-80387433D01*
X149304856Y-80369432D01*
X149341396Y-80358347D01*
X149385538Y-80354000D01*
X150334462Y-80354000D01*
X150378604Y-80358347D01*
X150378604Y-80358347D01*
G37*
G36*
X147578604Y-80358347D02*
G01*
X147615144Y-80369432D01*
X147648821Y-80387433D01*
X147678341Y-80411659D01*
X147702567Y-80441179D01*
X147720568Y-80474856D01*
X147731653Y-80511396D01*
X147736000Y-80555538D01*
X147736000Y-82004462D01*
X147731653Y-82048604D01*
X147720568Y-82085144D01*
X147702567Y-82118821D01*
X147678341Y-82148341D01*
X147648821Y-82172567D01*
X147615144Y-82190568D01*
X147578604Y-82201653D01*
X147534462Y-82206000D01*
X146585538Y-82206000D01*
X146541396Y-82201653D01*
X146504856Y-82190568D01*
X146471179Y-82172567D01*
X146441659Y-82148341D01*
X146417433Y-82118821D01*
X146399432Y-82085144D01*
X146388347Y-82048604D01*
X146384000Y-82004462D01*
X146384000Y-80555538D01*
X146388347Y-80511396D01*
X146399432Y-80474856D01*
X146417433Y-80441179D01*
X146441659Y-80411659D01*
X146471179Y-80387433D01*
X146504856Y-80369432D01*
X146541396Y-80358347D01*
X146585538Y-80354000D01*
X147534462Y-80354000D01*
X147578604Y-80358347D01*
X147578604Y-80358347D01*
G37*
G36*
X161531000Y-81831000D02*
G01*
X158429000Y-81831000D01*
X158429000Y-80729000D01*
X161531000Y-80729000D01*
X161531000Y-81831000D01*
X161531000Y-81831000D01*
G37*
G36*
X156491000Y-81831000D02*
G01*
X153389000Y-81831000D01*
X153389000Y-80729000D01*
X156491000Y-80729000D01*
X156491000Y-81831000D01*
X156491000Y-81831000D01*
G37*
G36*
X144096000Y-76221000D02*
G01*
X137844000Y-76221000D01*
X137844000Y-74519000D01*
X144096000Y-74519000D01*
X144096000Y-76221000D01*
X144096000Y-76221000D01*
G37*
G36*
X151898604Y-74518347D02*
G01*
X151935144Y-74529432D01*
X151968821Y-74547433D01*
X151998341Y-74571659D01*
X152022567Y-74601179D01*
X152040568Y-74634856D01*
X152051653Y-74671396D01*
X152056000Y-74715538D01*
X152056000Y-75664462D01*
X152051653Y-75708604D01*
X152040568Y-75745144D01*
X152022567Y-75778821D01*
X151998341Y-75808341D01*
X151968821Y-75832567D01*
X151935144Y-75850568D01*
X151898604Y-75861653D01*
X151854462Y-75866000D01*
X150405538Y-75866000D01*
X150361396Y-75861653D01*
X150324856Y-75850568D01*
X150291179Y-75832567D01*
X150261659Y-75808341D01*
X150237433Y-75778821D01*
X150219432Y-75745144D01*
X150208347Y-75708604D01*
X150204000Y-75664462D01*
X150204000Y-74715538D01*
X150208347Y-74671396D01*
X150219432Y-74634856D01*
X150237433Y-74601179D01*
X150261659Y-74571659D01*
X150291179Y-74547433D01*
X150324856Y-74529432D01*
X150361396Y-74518347D01*
X150405538Y-74514000D01*
X151854462Y-74514000D01*
X151898604Y-74518347D01*
X151898604Y-74518347D01*
G37*
G36*
X137571000Y-74246000D02*
G01*
X135869000Y-74246000D01*
X135869000Y-67994000D01*
X137571000Y-67994000D01*
X137571000Y-74246000D01*
X137571000Y-74246000D01*
G37*
G36*
X146071000Y-74246000D02*
G01*
X144369000Y-74246000D01*
X144369000Y-67994000D01*
X146071000Y-67994000D01*
X146071000Y-74246000D01*
X146071000Y-74246000D01*
G37*
G36*
X160301000Y-74211000D02*
G01*
X157199000Y-74211000D01*
X157199000Y-73109000D01*
X160301000Y-73109000D01*
X160301000Y-74211000D01*
X160301000Y-74211000D01*
G37*
G36*
X165341000Y-74211000D02*
G01*
X162239000Y-74211000D01*
X162239000Y-73109000D01*
X165341000Y-73109000D01*
X165341000Y-74211000D01*
X165341000Y-74211000D01*
G37*
G36*
X125228604Y-71978347D02*
G01*
X125265144Y-71989432D01*
X125298821Y-72007433D01*
X125328341Y-72031659D01*
X125352567Y-72061179D01*
X125370568Y-72094856D01*
X125381653Y-72131396D01*
X125386000Y-72175538D01*
X125386000Y-73124462D01*
X125381653Y-73168604D01*
X125370568Y-73205144D01*
X125352567Y-73238821D01*
X125328341Y-73268341D01*
X125298821Y-73292567D01*
X125265144Y-73310568D01*
X125228604Y-73321653D01*
X125184462Y-73326000D01*
X123735538Y-73326000D01*
X123691396Y-73321653D01*
X123654856Y-73310568D01*
X123621179Y-73292567D01*
X123591659Y-73268341D01*
X123567433Y-73238821D01*
X123549432Y-73205144D01*
X123538347Y-73168604D01*
X123534000Y-73124462D01*
X123534000Y-72175538D01*
X123538347Y-72131396D01*
X123549432Y-72094856D01*
X123567433Y-72061179D01*
X123591659Y-72031659D01*
X123621179Y-72007433D01*
X123654856Y-71989432D01*
X123691396Y-71978347D01*
X123735538Y-71974000D01*
X125184462Y-71974000D01*
X125228604Y-71978347D01*
X125228604Y-71978347D01*
G37*
G36*
X130815558Y-71973377D02*
G01*
X130852098Y-71984462D01*
X130885775Y-72002463D01*
X130915295Y-72026689D01*
X130939521Y-72056209D01*
X130957522Y-72089886D01*
X130968607Y-72126426D01*
X130972954Y-72170568D01*
X130972954Y-73119492D01*
X130968607Y-73163634D01*
X130957522Y-73200174D01*
X130939521Y-73233851D01*
X130915295Y-73263371D01*
X130885775Y-73287597D01*
X130852098Y-73305598D01*
X130815558Y-73316683D01*
X130771416Y-73321030D01*
X129322492Y-73321030D01*
X129278350Y-73316683D01*
X129241810Y-73305598D01*
X129208133Y-73287597D01*
X129178613Y-73263371D01*
X129154387Y-73233851D01*
X129136386Y-73200174D01*
X129125301Y-73163634D01*
X129120954Y-73119492D01*
X129120954Y-72170568D01*
X129125301Y-72126426D01*
X129136386Y-72089886D01*
X129154387Y-72056209D01*
X129178613Y-72026689D01*
X129208133Y-72002463D01*
X129241810Y-71984462D01*
X129278350Y-71973377D01*
X129322492Y-71969030D01*
X130771416Y-71969030D01*
X130815558Y-71973377D01*
X130815558Y-71973377D01*
G37*
G36*
X151898604Y-71718347D02*
G01*
X151935144Y-71729432D01*
X151968821Y-71747433D01*
X151998341Y-71771659D01*
X152022567Y-71801179D01*
X152040568Y-71834856D01*
X152051653Y-71871396D01*
X152056000Y-71915538D01*
X152056000Y-72864462D01*
X152051653Y-72908604D01*
X152040568Y-72945144D01*
X152022567Y-72978821D01*
X151998341Y-73008341D01*
X151968821Y-73032567D01*
X151935144Y-73050568D01*
X151898604Y-73061653D01*
X151854462Y-73066000D01*
X150405538Y-73066000D01*
X150361396Y-73061653D01*
X150324856Y-73050568D01*
X150291179Y-73032567D01*
X150261659Y-73008341D01*
X150237433Y-72978821D01*
X150219432Y-72945144D01*
X150208347Y-72908604D01*
X150204000Y-72864462D01*
X150204000Y-71915538D01*
X150208347Y-71871396D01*
X150219432Y-71834856D01*
X150237433Y-71801179D01*
X150261659Y-71771659D01*
X150291179Y-71747433D01*
X150324856Y-71729432D01*
X150361396Y-71718347D01*
X150405538Y-71714000D01*
X151854462Y-71714000D01*
X151898604Y-71718347D01*
X151898604Y-71718347D01*
G37*
G36*
X165341000Y-71671000D02*
G01*
X162239000Y-71671000D01*
X162239000Y-70569000D01*
X165341000Y-70569000D01*
X165341000Y-71671000D01*
X165341000Y-71671000D01*
G37*
G36*
X160301000Y-71671000D02*
G01*
X157199000Y-71671000D01*
X157199000Y-70569000D01*
X160301000Y-70569000D01*
X160301000Y-71671000D01*
X160301000Y-71671000D01*
G37*
G36*
X125228604Y-69178347D02*
G01*
X125265144Y-69189432D01*
X125298821Y-69207433D01*
X125328341Y-69231659D01*
X125352567Y-69261179D01*
X125370568Y-69294856D01*
X125381653Y-69331396D01*
X125386000Y-69375538D01*
X125386000Y-70324462D01*
X125381653Y-70368604D01*
X125370568Y-70405144D01*
X125352567Y-70438821D01*
X125328341Y-70468341D01*
X125298821Y-70492567D01*
X125265144Y-70510568D01*
X125228604Y-70521653D01*
X125184462Y-70526000D01*
X123735538Y-70526000D01*
X123691396Y-70521653D01*
X123654856Y-70510568D01*
X123621179Y-70492567D01*
X123591659Y-70468341D01*
X123567433Y-70438821D01*
X123549432Y-70405144D01*
X123538347Y-70368604D01*
X123534000Y-70324462D01*
X123534000Y-69375538D01*
X123538347Y-69331396D01*
X123549432Y-69294856D01*
X123567433Y-69261179D01*
X123591659Y-69231659D01*
X123621179Y-69207433D01*
X123654856Y-69189432D01*
X123691396Y-69178347D01*
X123735538Y-69174000D01*
X125184462Y-69174000D01*
X125228604Y-69178347D01*
X125228604Y-69178347D01*
G37*
G36*
X151898604Y-69178347D02*
G01*
X151935144Y-69189432D01*
X151968821Y-69207433D01*
X151998341Y-69231659D01*
X152022567Y-69261179D01*
X152040568Y-69294856D01*
X152051653Y-69331396D01*
X152056000Y-69375538D01*
X152056000Y-70324462D01*
X152051653Y-70368604D01*
X152040568Y-70405144D01*
X152022567Y-70438821D01*
X151998341Y-70468341D01*
X151968821Y-70492567D01*
X151935144Y-70510568D01*
X151898604Y-70521653D01*
X151854462Y-70526000D01*
X150405538Y-70526000D01*
X150361396Y-70521653D01*
X150324856Y-70510568D01*
X150291179Y-70492567D01*
X150261659Y-70468341D01*
X150237433Y-70438821D01*
X150219432Y-70405144D01*
X150208347Y-70368604D01*
X150204000Y-70324462D01*
X150204000Y-69375538D01*
X150208347Y-69331396D01*
X150219432Y-69294856D01*
X150237433Y-69261179D01*
X150261659Y-69231659D01*
X150291179Y-69207433D01*
X150324856Y-69189432D01*
X150361396Y-69178347D01*
X150405538Y-69174000D01*
X151854462Y-69174000D01*
X151898604Y-69178347D01*
X151898604Y-69178347D01*
G37*
G36*
X130815558Y-69173377D02*
G01*
X130852098Y-69184462D01*
X130885775Y-69202463D01*
X130915295Y-69226689D01*
X130939521Y-69256209D01*
X130957522Y-69289886D01*
X130968607Y-69326426D01*
X130972954Y-69370568D01*
X130972954Y-70319492D01*
X130968607Y-70363634D01*
X130957522Y-70400174D01*
X130939521Y-70433851D01*
X130915295Y-70463371D01*
X130885775Y-70487597D01*
X130852098Y-70505598D01*
X130815558Y-70516683D01*
X130771416Y-70521030D01*
X129322492Y-70521030D01*
X129278350Y-70516683D01*
X129241810Y-70505598D01*
X129208133Y-70487597D01*
X129178613Y-70463371D01*
X129154387Y-70433851D01*
X129136386Y-70400174D01*
X129125301Y-70363634D01*
X129120954Y-70319492D01*
X129120954Y-69370568D01*
X129125301Y-69326426D01*
X129136386Y-69289886D01*
X129154387Y-69256209D01*
X129178613Y-69226689D01*
X129208133Y-69202463D01*
X129241810Y-69184462D01*
X129278350Y-69173377D01*
X129322492Y-69169030D01*
X130771416Y-69169030D01*
X130815558Y-69173377D01*
X130815558Y-69173377D01*
G37*
G36*
X165341000Y-69131000D02*
G01*
X162239000Y-69131000D01*
X162239000Y-68029000D01*
X165341000Y-68029000D01*
X165341000Y-69131000D01*
X165341000Y-69131000D01*
G37*
G36*
X160301000Y-69131000D02*
G01*
X157199000Y-69131000D01*
X157199000Y-68029000D01*
X160301000Y-68029000D01*
X160301000Y-69131000D01*
X160301000Y-69131000D01*
G37*
G36*
X151898604Y-66378347D02*
G01*
X151935144Y-66389432D01*
X151968821Y-66407433D01*
X151998341Y-66431659D01*
X152022567Y-66461179D01*
X152040568Y-66494856D01*
X152051653Y-66531396D01*
X152056000Y-66575538D01*
X152056000Y-67524462D01*
X152051653Y-67568604D01*
X152040568Y-67605144D01*
X152022567Y-67638821D01*
X151998341Y-67668341D01*
X151968821Y-67692567D01*
X151935144Y-67710568D01*
X151898604Y-67721653D01*
X151854462Y-67726000D01*
X150405538Y-67726000D01*
X150361396Y-67721653D01*
X150324856Y-67710568D01*
X150291179Y-67692567D01*
X150261659Y-67668341D01*
X150237433Y-67638821D01*
X150219432Y-67605144D01*
X150208347Y-67568604D01*
X150204000Y-67524462D01*
X150204000Y-66575538D01*
X150208347Y-66531396D01*
X150219432Y-66494856D01*
X150237433Y-66461179D01*
X150261659Y-66431659D01*
X150291179Y-66407433D01*
X150324856Y-66389432D01*
X150361396Y-66378347D01*
X150405538Y-66374000D01*
X151854462Y-66374000D01*
X151898604Y-66378347D01*
X151898604Y-66378347D01*
G37*
G36*
X144096000Y-67721000D02*
G01*
X137844000Y-67721000D01*
X137844000Y-66019000D01*
X144096000Y-66019000D01*
X144096000Y-67721000D01*
X144096000Y-67721000D01*
G37*
G36*
X147199604Y-61558347D02*
G01*
X147236144Y-61569432D01*
X147269821Y-61587433D01*
X147299341Y-61611659D01*
X147323567Y-61641179D01*
X147341568Y-61674856D01*
X147352653Y-61711396D01*
X147357000Y-61755538D01*
X147357000Y-62704462D01*
X147352653Y-62748604D01*
X147341568Y-62785144D01*
X147323567Y-62818821D01*
X147299341Y-62848341D01*
X147269821Y-62872567D01*
X147236144Y-62890568D01*
X147199604Y-62901653D01*
X147155462Y-62906000D01*
X145706538Y-62906000D01*
X145662396Y-62901653D01*
X145625856Y-62890568D01*
X145592179Y-62872567D01*
X145562659Y-62848341D01*
X145538433Y-62818821D01*
X145520432Y-62785144D01*
X145509347Y-62748604D01*
X145505000Y-62704462D01*
X145505000Y-61755538D01*
X145509347Y-61711396D01*
X145520432Y-61674856D01*
X145538433Y-61641179D01*
X145562659Y-61611659D01*
X145592179Y-61587433D01*
X145625856Y-61569432D01*
X145662396Y-61558347D01*
X145706538Y-61554000D01*
X147155462Y-61554000D01*
X147199604Y-61558347D01*
X147199604Y-61558347D01*
G37*
G36*
X141484604Y-61558347D02*
G01*
X141521144Y-61569432D01*
X141554821Y-61587433D01*
X141584341Y-61611659D01*
X141608567Y-61641179D01*
X141626568Y-61674856D01*
X141637653Y-61711396D01*
X141642000Y-61755538D01*
X141642000Y-62704462D01*
X141637653Y-62748604D01*
X141626568Y-62785144D01*
X141608567Y-62818821D01*
X141584341Y-62848341D01*
X141554821Y-62872567D01*
X141521144Y-62890568D01*
X141484604Y-62901653D01*
X141440462Y-62906000D01*
X139991538Y-62906000D01*
X139947396Y-62901653D01*
X139910856Y-62890568D01*
X139877179Y-62872567D01*
X139847659Y-62848341D01*
X139823433Y-62818821D01*
X139805432Y-62785144D01*
X139794347Y-62748604D01*
X139790000Y-62704462D01*
X139790000Y-61755538D01*
X139794347Y-61711396D01*
X139805432Y-61674856D01*
X139823433Y-61641179D01*
X139847659Y-61611659D01*
X139877179Y-61587433D01*
X139910856Y-61569432D01*
X139947396Y-61558347D01*
X139991538Y-61554000D01*
X141440462Y-61554000D01*
X141484604Y-61558347D01*
X141484604Y-61558347D01*
G37*
G36*
X136658604Y-61558347D02*
G01*
X136695144Y-61569432D01*
X136728821Y-61587433D01*
X136758341Y-61611659D01*
X136782567Y-61641179D01*
X136800568Y-61674856D01*
X136811653Y-61711396D01*
X136816000Y-61755538D01*
X136816000Y-62704462D01*
X136811653Y-62748604D01*
X136800568Y-62785144D01*
X136782567Y-62818821D01*
X136758341Y-62848341D01*
X136728821Y-62872567D01*
X136695144Y-62890568D01*
X136658604Y-62901653D01*
X136614462Y-62906000D01*
X135165538Y-62906000D01*
X135121396Y-62901653D01*
X135084856Y-62890568D01*
X135051179Y-62872567D01*
X135021659Y-62848341D01*
X134997433Y-62818821D01*
X134979432Y-62785144D01*
X134968347Y-62748604D01*
X134964000Y-62704462D01*
X134964000Y-61755538D01*
X134968347Y-61711396D01*
X134979432Y-61674856D01*
X134997433Y-61641179D01*
X135021659Y-61611659D01*
X135051179Y-61587433D01*
X135084856Y-61569432D01*
X135121396Y-61558347D01*
X135165538Y-61554000D01*
X136614462Y-61554000D01*
X136658604Y-61558347D01*
X136658604Y-61558347D01*
G37*
G36*
X126051000Y-62781000D02*
G01*
X122949000Y-62781000D01*
X122949000Y-61679000D01*
X126051000Y-61679000D01*
X126051000Y-62781000D01*
X126051000Y-62781000D01*
G37*
G36*
X131091000Y-62781000D02*
G01*
X127989000Y-62781000D01*
X127989000Y-61679000D01*
X131091000Y-61679000D01*
X131091000Y-62781000D01*
X131091000Y-62781000D01*
G37*
G36*
X165381000Y-61511000D02*
G01*
X162279000Y-61511000D01*
X162279000Y-60409000D01*
X165381000Y-60409000D01*
X165381000Y-61511000D01*
X165381000Y-61511000D01*
G37*
G36*
X160341000Y-61511000D02*
G01*
X157239000Y-61511000D01*
X157239000Y-60409000D01*
X160341000Y-60409000D01*
X160341000Y-61511000D01*
X160341000Y-61511000D01*
G37*
G36*
X126051000Y-60241000D02*
G01*
X122949000Y-60241000D01*
X122949000Y-59139000D01*
X126051000Y-59139000D01*
X126051000Y-60241000D01*
X126051000Y-60241000D01*
G37*
G36*
X131091000Y-60241000D02*
G01*
X127989000Y-60241000D01*
X127989000Y-59139000D01*
X131091000Y-59139000D01*
X131091000Y-60241000D01*
X131091000Y-60241000D01*
G37*
G36*
X147199604Y-58758347D02*
G01*
X147236144Y-58769432D01*
X147269821Y-58787433D01*
X147299341Y-58811659D01*
X147323567Y-58841179D01*
X147341568Y-58874856D01*
X147352653Y-58911396D01*
X147357000Y-58955538D01*
X147357000Y-59904462D01*
X147352653Y-59948604D01*
X147341568Y-59985144D01*
X147323567Y-60018821D01*
X147299341Y-60048341D01*
X147269821Y-60072567D01*
X147236144Y-60090568D01*
X147199604Y-60101653D01*
X147155462Y-60106000D01*
X145706538Y-60106000D01*
X145662396Y-60101653D01*
X145625856Y-60090568D01*
X145592179Y-60072567D01*
X145562659Y-60048341D01*
X145538433Y-60018821D01*
X145520432Y-59985144D01*
X145509347Y-59948604D01*
X145505000Y-59904462D01*
X145505000Y-58955538D01*
X145509347Y-58911396D01*
X145520432Y-58874856D01*
X145538433Y-58841179D01*
X145562659Y-58811659D01*
X145592179Y-58787433D01*
X145625856Y-58769432D01*
X145662396Y-58758347D01*
X145706538Y-58754000D01*
X147155462Y-58754000D01*
X147199604Y-58758347D01*
X147199604Y-58758347D01*
G37*
G36*
X141484604Y-58758347D02*
G01*
X141521144Y-58769432D01*
X141554821Y-58787433D01*
X141584341Y-58811659D01*
X141608567Y-58841179D01*
X141626568Y-58874856D01*
X141637653Y-58911396D01*
X141642000Y-58955538D01*
X141642000Y-59904462D01*
X141637653Y-59948604D01*
X141626568Y-59985144D01*
X141608567Y-60018821D01*
X141584341Y-60048341D01*
X141554821Y-60072567D01*
X141521144Y-60090568D01*
X141484604Y-60101653D01*
X141440462Y-60106000D01*
X139991538Y-60106000D01*
X139947396Y-60101653D01*
X139910856Y-60090568D01*
X139877179Y-60072567D01*
X139847659Y-60048341D01*
X139823433Y-60018821D01*
X139805432Y-59985144D01*
X139794347Y-59948604D01*
X139790000Y-59904462D01*
X139790000Y-58955538D01*
X139794347Y-58911396D01*
X139805432Y-58874856D01*
X139823433Y-58841179D01*
X139847659Y-58811659D01*
X139877179Y-58787433D01*
X139910856Y-58769432D01*
X139947396Y-58758347D01*
X139991538Y-58754000D01*
X141440462Y-58754000D01*
X141484604Y-58758347D01*
X141484604Y-58758347D01*
G37*
G36*
X136658604Y-58758347D02*
G01*
X136695144Y-58769432D01*
X136728821Y-58787433D01*
X136758341Y-58811659D01*
X136782567Y-58841179D01*
X136800568Y-58874856D01*
X136811653Y-58911396D01*
X136816000Y-58955538D01*
X136816000Y-59904462D01*
X136811653Y-59948604D01*
X136800568Y-59985144D01*
X136782567Y-60018821D01*
X136758341Y-60048341D01*
X136728821Y-60072567D01*
X136695144Y-60090568D01*
X136658604Y-60101653D01*
X136614462Y-60106000D01*
X135165538Y-60106000D01*
X135121396Y-60101653D01*
X135084856Y-60090568D01*
X135051179Y-60072567D01*
X135021659Y-60048341D01*
X134997433Y-60018821D01*
X134979432Y-59985144D01*
X134968347Y-59948604D01*
X134964000Y-59904462D01*
X134964000Y-58955538D01*
X134968347Y-58911396D01*
X134979432Y-58874856D01*
X134997433Y-58841179D01*
X135021659Y-58811659D01*
X135051179Y-58787433D01*
X135084856Y-58769432D01*
X135121396Y-58758347D01*
X135165538Y-58754000D01*
X136614462Y-58754000D01*
X136658604Y-58758347D01*
X136658604Y-58758347D01*
G37*
G36*
X165381000Y-58971000D02*
G01*
X162279000Y-58971000D01*
X162279000Y-57869000D01*
X165381000Y-57869000D01*
X165381000Y-58971000D01*
X165381000Y-58971000D01*
G37*
G36*
X160341000Y-58971000D02*
G01*
X157239000Y-58971000D01*
X157239000Y-57869000D01*
X160341000Y-57869000D01*
X160341000Y-58971000D01*
X160341000Y-58971000D01*
G37*
G36*
X155491000Y-53621000D02*
G01*
X154389000Y-53621000D01*
X154389000Y-50519000D01*
X155491000Y-50519000D01*
X155491000Y-53621000D01*
X155491000Y-53621000D01*
G37*
G36*
X133901000Y-53621000D02*
G01*
X132799000Y-53621000D01*
X132799000Y-50519000D01*
X133901000Y-50519000D01*
X133901000Y-53621000D01*
X133901000Y-53621000D01*
G37*
G36*
X136441000Y-53621000D02*
G01*
X135339000Y-53621000D01*
X135339000Y-50519000D01*
X136441000Y-50519000D01*
X136441000Y-53621000D01*
X136441000Y-53621000D01*
G37*
G36*
X152951000Y-53621000D02*
G01*
X151849000Y-53621000D01*
X151849000Y-50519000D01*
X152951000Y-50519000D01*
X152951000Y-53621000D01*
X152951000Y-53621000D01*
G37*
G36*
X145331000Y-53621000D02*
G01*
X144229000Y-53621000D01*
X144229000Y-50519000D01*
X145331000Y-50519000D01*
X145331000Y-53621000D01*
X145331000Y-53621000D01*
G37*
G36*
X142791000Y-53621000D02*
G01*
X141689000Y-53621000D01*
X141689000Y-50519000D01*
X142791000Y-50519000D01*
X142791000Y-53621000D01*
X142791000Y-53621000D01*
G37*
G36*
X129038604Y-50128347D02*
G01*
X129075144Y-50139432D01*
X129108821Y-50157433D01*
X129138341Y-50181659D01*
X129162567Y-50211179D01*
X129180568Y-50244856D01*
X129191653Y-50281396D01*
X129196000Y-50325538D01*
X129196000Y-51274462D01*
X129191653Y-51318604D01*
X129180568Y-51355144D01*
X129162567Y-51388821D01*
X129138341Y-51418341D01*
X129108821Y-51442567D01*
X129075144Y-51460568D01*
X129038604Y-51471653D01*
X128994462Y-51476000D01*
X127545538Y-51476000D01*
X127501396Y-51471653D01*
X127464856Y-51460568D01*
X127431179Y-51442567D01*
X127401659Y-51418341D01*
X127377433Y-51388821D01*
X127359432Y-51355144D01*
X127348347Y-51318604D01*
X127344000Y-51274462D01*
X127344000Y-50325538D01*
X127348347Y-50281396D01*
X127359432Y-50244856D01*
X127377433Y-50211179D01*
X127401659Y-50181659D01*
X127431179Y-50157433D01*
X127464856Y-50139432D01*
X127501396Y-50128347D01*
X127545538Y-50124000D01*
X128994462Y-50124000D01*
X129038604Y-50128347D01*
X129038604Y-50128347D01*
G37*
G36*
X129038604Y-47328347D02*
G01*
X129075144Y-47339432D01*
X129108821Y-47357433D01*
X129138341Y-47381659D01*
X129162567Y-47411179D01*
X129180568Y-47444856D01*
X129191653Y-47481396D01*
X129196000Y-47525538D01*
X129196000Y-48474462D01*
X129191653Y-48518604D01*
X129180568Y-48555144D01*
X129162567Y-48588821D01*
X129138341Y-48618341D01*
X129108821Y-48642567D01*
X129075144Y-48660568D01*
X129038604Y-48671653D01*
X128994462Y-48676000D01*
X127545538Y-48676000D01*
X127501396Y-48671653D01*
X127464856Y-48660568D01*
X127431179Y-48642567D01*
X127401659Y-48618341D01*
X127377433Y-48588821D01*
X127359432Y-48555144D01*
X127348347Y-48518604D01*
X127344000Y-48474462D01*
X127344000Y-47525538D01*
X127348347Y-47481396D01*
X127359432Y-47444856D01*
X127377433Y-47411179D01*
X127401659Y-47381659D01*
X127431179Y-47357433D01*
X127464856Y-47339432D01*
X127501396Y-47328347D01*
X127545538Y-47324000D01*
X128994462Y-47324000D01*
X129038604Y-47328347D01*
X129038604Y-47328347D01*
G37*
G36*
X142791000Y-48581000D02*
G01*
X141689000Y-48581000D01*
X141689000Y-45479000D01*
X142791000Y-45479000D01*
X142791000Y-48581000D01*
X142791000Y-48581000D01*
G37*
G36*
X152951000Y-48581000D02*
G01*
X151849000Y-48581000D01*
X151849000Y-45479000D01*
X152951000Y-45479000D01*
X152951000Y-48581000D01*
X152951000Y-48581000D01*
G37*
G36*
X136441000Y-48581000D02*
G01*
X135339000Y-48581000D01*
X135339000Y-45479000D01*
X136441000Y-45479000D01*
X136441000Y-48581000D01*
X136441000Y-48581000D01*
G37*
G36*
X133901000Y-48581000D02*
G01*
X132799000Y-48581000D01*
X132799000Y-45479000D01*
X133901000Y-45479000D01*
X133901000Y-48581000D01*
X133901000Y-48581000D01*
G37*
G36*
X155491000Y-48581000D02*
G01*
X154389000Y-48581000D01*
X154389000Y-45479000D01*
X155491000Y-45479000D01*
X155491000Y-48581000D01*
X155491000Y-48581000D01*
G37*
G36*
X145331000Y-48581000D02*
G01*
X144229000Y-48581000D01*
X144229000Y-45479000D01*
X145331000Y-45479000D01*
X145331000Y-48581000D01*
X145331000Y-48581000D01*
G37*
M02*
