G04 #@! TF.GenerationSoftware,KiCad,Pcbnew,(5.1.2)-2*
G04 #@! TF.CreationDate,2019-08-20T18:16:31+03:00*
G04 #@! TF.ProjectId,atmega328,61746d65-6761-4333-9238-2e6b69636164,rev?*
G04 #@! TF.SameCoordinates,Original*
G04 #@! TF.FileFunction,Copper,L4,Bot*
G04 #@! TF.FilePolarity,Positive*
%FSLAX46Y46*%
G04 Gerber Fmt 4.6, Leading zero omitted, Abs format (unit mm)*
G04 Created by KiCad (PCBNEW (5.1.2)-2) date 2019-08-20 18:16:31*
%MOMM*%
%LPD*%
G04 APERTURE LIST*
%ADD10C,0.900000*%
%ADD11C,0.381000*%
%ADD12C,0.300000*%
G04 APERTURE END LIST*
D10*
X126238000Y-48006000D03*
X138785499Y-48920501D03*
X148336000Y-47879000D03*
X163793994Y-65568006D03*
X162179000Y-84201000D03*
X127254000Y-69850000D03*
X132588000Y-70612000D03*
X149727000Y-59430000D03*
X148399500Y-69278500D03*
X155321000Y-66421000D03*
X148844000Y-62103000D03*
X138684000Y-44831000D03*
X148590000Y-44704000D03*
X163830000Y-55753000D03*
X166878000Y-70739000D03*
X152146000Y-86360000D03*
X133350000Y-72390000D03*
X127125970Y-72645030D03*
X140716000Y-57658000D03*
X153930000Y-75190000D03*
X148114000Y-73120000D03*
X162560000Y-77470000D03*
X147828000Y-75692000D03*
X145669000Y-65024000D03*
X150114000Y-55753000D03*
X143256000Y-63881000D03*
X148463000Y-52197000D03*
D11*
X153162000Y-66421000D02*
X155321000Y-66421000D01*
X148844000Y-62103000D02*
X153162000Y-66421000D01*
X149661355Y-77470000D02*
X162560000Y-77470000D01*
X148659315Y-77470000D02*
X149661355Y-77470000D01*
X147701000Y-76511685D02*
X148659315Y-77470000D01*
X147701000Y-75819000D02*
X147701000Y-76384685D01*
X145669000Y-65024000D02*
X145669000Y-60198000D01*
X145669000Y-60198000D02*
X150114000Y-55753000D01*
X143256000Y-63881000D02*
X143256000Y-57404000D01*
X143256000Y-57404000D02*
X148463000Y-52197000D01*
D12*
G36*
X137919045Y-43898899D02*
G01*
X137751899Y-44066045D01*
X137620574Y-44262587D01*
X137530116Y-44480973D01*
X137484000Y-44712810D01*
X137484000Y-44949190D01*
X137530116Y-45181027D01*
X137620574Y-45399413D01*
X137751899Y-45595955D01*
X137919045Y-45763101D01*
X138115587Y-45894426D01*
X138333973Y-45984884D01*
X138565810Y-46031000D01*
X138802190Y-46031000D01*
X139034027Y-45984884D01*
X139252413Y-45894426D01*
X139448955Y-45763101D01*
X139616101Y-45595955D01*
X139747426Y-45399413D01*
X139837884Y-45181027D01*
X139884000Y-44949190D01*
X139884000Y-44712810D01*
X139837884Y-44480973D01*
X139747426Y-44262587D01*
X139616101Y-44066045D01*
X139448955Y-43898899D01*
X139342847Y-43828000D01*
X147768944Y-43828000D01*
X147657899Y-43939045D01*
X147526574Y-44135587D01*
X147436116Y-44353973D01*
X147390000Y-44585810D01*
X147390000Y-44822190D01*
X147436116Y-45054027D01*
X147526574Y-45272413D01*
X147657899Y-45468955D01*
X147825045Y-45636101D01*
X148021587Y-45767426D01*
X148239973Y-45857884D01*
X148471810Y-45904000D01*
X148708190Y-45904000D01*
X148940027Y-45857884D01*
X149158413Y-45767426D01*
X149354955Y-45636101D01*
X149522101Y-45468955D01*
X149653426Y-45272413D01*
X149743884Y-45054027D01*
X149790000Y-44822190D01*
X149790000Y-44585810D01*
X149743884Y-44353973D01*
X149653426Y-44135587D01*
X149522101Y-43939045D01*
X149411056Y-43828000D01*
X173723000Y-43828000D01*
X173723001Y-89395000D01*
X116345000Y-89395000D01*
X116345000Y-86241810D01*
X150946000Y-86241810D01*
X150946000Y-86478190D01*
X150992116Y-86710027D01*
X151082574Y-86928413D01*
X151213899Y-87124955D01*
X151381045Y-87292101D01*
X151577587Y-87423426D01*
X151795973Y-87513884D01*
X152027810Y-87560000D01*
X152264190Y-87560000D01*
X152496027Y-87513884D01*
X152714413Y-87423426D01*
X152910955Y-87292101D01*
X153078101Y-87124955D01*
X153209426Y-86928413D01*
X153299884Y-86710027D01*
X153346000Y-86478190D01*
X153346000Y-86241810D01*
X153299884Y-86009973D01*
X153209426Y-85791587D01*
X153078101Y-85595045D01*
X152910955Y-85427899D01*
X152714413Y-85296574D01*
X152496027Y-85206116D01*
X152264190Y-85160000D01*
X152027810Y-85160000D01*
X151795973Y-85206116D01*
X151577587Y-85296574D01*
X151381045Y-85427899D01*
X151213899Y-85595045D01*
X151082574Y-85791587D01*
X150992116Y-86009973D01*
X150946000Y-86241810D01*
X116345000Y-86241810D01*
X116345000Y-75573810D01*
X146628000Y-75573810D01*
X146628000Y-75810190D01*
X146674116Y-76042027D01*
X146760500Y-76250577D01*
X146760500Y-76430882D01*
X146762205Y-76448189D01*
X146755951Y-76511685D01*
X146774109Y-76696054D01*
X146827888Y-76873339D01*
X146915220Y-77036726D01*
X147003300Y-77144052D01*
X147961617Y-78102370D01*
X147991064Y-78138251D01*
X148026944Y-78167697D01*
X148026947Y-78167700D01*
X148108898Y-78234955D01*
X148134273Y-78255780D01*
X148297660Y-78343112D01*
X148474945Y-78396891D01*
X148613118Y-78410500D01*
X148613125Y-78410500D01*
X148659314Y-78415049D01*
X148705503Y-78410500D01*
X161807615Y-78410500D01*
X161991587Y-78533426D01*
X162209973Y-78623884D01*
X162441810Y-78670000D01*
X162678190Y-78670000D01*
X162910027Y-78623884D01*
X163128413Y-78533426D01*
X163324955Y-78402101D01*
X163492101Y-78234955D01*
X163623426Y-78038413D01*
X163713884Y-77820027D01*
X163760000Y-77588190D01*
X163760000Y-77351810D01*
X163713884Y-77119973D01*
X163623426Y-76901587D01*
X163492101Y-76705045D01*
X163324955Y-76537899D01*
X163128413Y-76406574D01*
X162910027Y-76316116D01*
X162678190Y-76270000D01*
X162441810Y-76270000D01*
X162209973Y-76316116D01*
X161991587Y-76406574D01*
X161807615Y-76529500D01*
X149048883Y-76529500D01*
X148846713Y-76327331D01*
X148891426Y-76260413D01*
X148981884Y-76042027D01*
X149028000Y-75810190D01*
X149028000Y-75573810D01*
X148981884Y-75341973D01*
X148891426Y-75123587D01*
X148856830Y-75071810D01*
X152730000Y-75071810D01*
X152730000Y-75308190D01*
X152776116Y-75540027D01*
X152866574Y-75758413D01*
X152997899Y-75954955D01*
X153165045Y-76122101D01*
X153361587Y-76253426D01*
X153579973Y-76343884D01*
X153811810Y-76390000D01*
X154048190Y-76390000D01*
X154280027Y-76343884D01*
X154498413Y-76253426D01*
X154694955Y-76122101D01*
X154862101Y-75954955D01*
X154993426Y-75758413D01*
X155083884Y-75540027D01*
X155130000Y-75308190D01*
X155130000Y-75071810D01*
X155083884Y-74839973D01*
X154993426Y-74621587D01*
X154862101Y-74425045D01*
X154694955Y-74257899D01*
X154498413Y-74126574D01*
X154280027Y-74036116D01*
X154048190Y-73990000D01*
X153811810Y-73990000D01*
X153579973Y-74036116D01*
X153361587Y-74126574D01*
X153165045Y-74257899D01*
X152997899Y-74425045D01*
X152866574Y-74621587D01*
X152776116Y-74839973D01*
X152730000Y-75071810D01*
X148856830Y-75071810D01*
X148760101Y-74927045D01*
X148592955Y-74759899D01*
X148396413Y-74628574D01*
X148178027Y-74538116D01*
X147946190Y-74492000D01*
X147709810Y-74492000D01*
X147477973Y-74538116D01*
X147259587Y-74628574D01*
X147063045Y-74759899D01*
X146895899Y-74927045D01*
X146764574Y-75123587D01*
X146674116Y-75341973D01*
X146628000Y-75573810D01*
X116345000Y-75573810D01*
X116345000Y-72526840D01*
X125925970Y-72526840D01*
X125925970Y-72763220D01*
X125972086Y-72995057D01*
X126062544Y-73213443D01*
X126193869Y-73409985D01*
X126361015Y-73577131D01*
X126557557Y-73708456D01*
X126775943Y-73798914D01*
X127007780Y-73845030D01*
X127244160Y-73845030D01*
X127475997Y-73798914D01*
X127694383Y-73708456D01*
X127890925Y-73577131D01*
X128058071Y-73409985D01*
X128189396Y-73213443D01*
X128279854Y-72995057D01*
X128325970Y-72763220D01*
X128325970Y-72526840D01*
X128279854Y-72295003D01*
X128270248Y-72271810D01*
X132150000Y-72271810D01*
X132150000Y-72508190D01*
X132196116Y-72740027D01*
X132286574Y-72958413D01*
X132417899Y-73154955D01*
X132585045Y-73322101D01*
X132781587Y-73453426D01*
X132999973Y-73543884D01*
X133231810Y-73590000D01*
X133468190Y-73590000D01*
X133700027Y-73543884D01*
X133918413Y-73453426D01*
X134114955Y-73322101D01*
X134282101Y-73154955D01*
X134384429Y-73001810D01*
X146914000Y-73001810D01*
X146914000Y-73238190D01*
X146960116Y-73470027D01*
X147050574Y-73688413D01*
X147181899Y-73884955D01*
X147349045Y-74052101D01*
X147545587Y-74183426D01*
X147763973Y-74273884D01*
X147995810Y-74320000D01*
X148232190Y-74320000D01*
X148464027Y-74273884D01*
X148682413Y-74183426D01*
X148878955Y-74052101D01*
X149046101Y-73884955D01*
X149177426Y-73688413D01*
X149267884Y-73470027D01*
X149314000Y-73238190D01*
X149314000Y-73001810D01*
X149267884Y-72769973D01*
X149177426Y-72551587D01*
X149046101Y-72355045D01*
X148878955Y-72187899D01*
X148682413Y-72056574D01*
X148464027Y-71966116D01*
X148232190Y-71920000D01*
X147995810Y-71920000D01*
X147763973Y-71966116D01*
X147545587Y-72056574D01*
X147349045Y-72187899D01*
X147181899Y-72355045D01*
X147050574Y-72551587D01*
X146960116Y-72769973D01*
X146914000Y-73001810D01*
X134384429Y-73001810D01*
X134413426Y-72958413D01*
X134503884Y-72740027D01*
X134550000Y-72508190D01*
X134550000Y-72271810D01*
X134503884Y-72039973D01*
X134413426Y-71821587D01*
X134282101Y-71625045D01*
X134114955Y-71457899D01*
X133918413Y-71326574D01*
X133700027Y-71236116D01*
X133468190Y-71190000D01*
X133231810Y-71190000D01*
X132999973Y-71236116D01*
X132781587Y-71326574D01*
X132585045Y-71457899D01*
X132417899Y-71625045D01*
X132286574Y-71821587D01*
X132196116Y-72039973D01*
X132150000Y-72271810D01*
X128270248Y-72271810D01*
X128189396Y-72076617D01*
X128058071Y-71880075D01*
X127890925Y-71712929D01*
X127694383Y-71581604D01*
X127475997Y-71491146D01*
X127244160Y-71445030D01*
X127007780Y-71445030D01*
X126775943Y-71491146D01*
X126557557Y-71581604D01*
X126361015Y-71712929D01*
X126193869Y-71880075D01*
X126062544Y-72076617D01*
X125972086Y-72295003D01*
X125925970Y-72526840D01*
X116345000Y-72526840D01*
X116345000Y-70620810D01*
X165678000Y-70620810D01*
X165678000Y-70857190D01*
X165724116Y-71089027D01*
X165814574Y-71307413D01*
X165945899Y-71503955D01*
X166113045Y-71671101D01*
X166309587Y-71802426D01*
X166527973Y-71892884D01*
X166759810Y-71939000D01*
X166996190Y-71939000D01*
X167228027Y-71892884D01*
X167446413Y-71802426D01*
X167642955Y-71671101D01*
X167810101Y-71503955D01*
X167941426Y-71307413D01*
X168031884Y-71089027D01*
X168078000Y-70857190D01*
X168078000Y-70620810D01*
X168031884Y-70388973D01*
X167941426Y-70170587D01*
X167810101Y-69974045D01*
X167642955Y-69806899D01*
X167446413Y-69675574D01*
X167228027Y-69585116D01*
X166996190Y-69539000D01*
X166759810Y-69539000D01*
X166527973Y-69585116D01*
X166309587Y-69675574D01*
X166113045Y-69806899D01*
X165945899Y-69974045D01*
X165814574Y-70170587D01*
X165724116Y-70388973D01*
X165678000Y-70620810D01*
X116345000Y-70620810D01*
X116345000Y-63762810D01*
X142056000Y-63762810D01*
X142056000Y-63999190D01*
X142102116Y-64231027D01*
X142192574Y-64449413D01*
X142323899Y-64645955D01*
X142491045Y-64813101D01*
X142687587Y-64944426D01*
X142905973Y-65034884D01*
X143137810Y-65081000D01*
X143374190Y-65081000D01*
X143606027Y-65034884D01*
X143824413Y-64944426D01*
X143882206Y-64905810D01*
X144469000Y-64905810D01*
X144469000Y-65142190D01*
X144515116Y-65374027D01*
X144605574Y-65592413D01*
X144736899Y-65788955D01*
X144904045Y-65956101D01*
X145100587Y-66087426D01*
X145318973Y-66177884D01*
X145550810Y-66224000D01*
X145787190Y-66224000D01*
X146019027Y-66177884D01*
X146237413Y-66087426D01*
X146433955Y-65956101D01*
X146601101Y-65788955D01*
X146732426Y-65592413D01*
X146822884Y-65374027D01*
X146869000Y-65142190D01*
X146869000Y-64905810D01*
X146822884Y-64673973D01*
X146732426Y-64455587D01*
X146609500Y-64271615D01*
X146609500Y-61984810D01*
X147644000Y-61984810D01*
X147644000Y-62221190D01*
X147690116Y-62453027D01*
X147780574Y-62671413D01*
X147911899Y-62867955D01*
X148079045Y-63035101D01*
X148275587Y-63166426D01*
X148493973Y-63256884D01*
X148710984Y-63300051D01*
X152464303Y-67053371D01*
X152493749Y-67089251D01*
X152529629Y-67118697D01*
X152529632Y-67118700D01*
X152611583Y-67185955D01*
X152636958Y-67206780D01*
X152800345Y-67294112D01*
X152977630Y-67347891D01*
X153115803Y-67361500D01*
X153115810Y-67361500D01*
X153161999Y-67366049D01*
X153208188Y-67361500D01*
X154568615Y-67361500D01*
X154752587Y-67484426D01*
X154970973Y-67574884D01*
X155202810Y-67621000D01*
X155439190Y-67621000D01*
X155671027Y-67574884D01*
X155889413Y-67484426D01*
X156085955Y-67353101D01*
X156253101Y-67185955D01*
X156384426Y-66989413D01*
X156474884Y-66771027D01*
X156521000Y-66539190D01*
X156521000Y-66302810D01*
X156474884Y-66070973D01*
X156384426Y-65852587D01*
X156253101Y-65656045D01*
X156085955Y-65488899D01*
X155889413Y-65357574D01*
X155671027Y-65267116D01*
X155439190Y-65221000D01*
X155202810Y-65221000D01*
X154970973Y-65267116D01*
X154752587Y-65357574D01*
X154568615Y-65480500D01*
X153551568Y-65480500D01*
X150041051Y-61969984D01*
X149997884Y-61752973D01*
X149907426Y-61534587D01*
X149776101Y-61338045D01*
X149608955Y-61170899D01*
X149412413Y-61039574D01*
X149194027Y-60949116D01*
X148962190Y-60903000D01*
X148725810Y-60903000D01*
X148493973Y-60949116D01*
X148275587Y-61039574D01*
X148079045Y-61170899D01*
X147911899Y-61338045D01*
X147780574Y-61534587D01*
X147690116Y-61752973D01*
X147644000Y-61984810D01*
X146609500Y-61984810D01*
X146609500Y-60587567D01*
X150247016Y-56950051D01*
X150464027Y-56906884D01*
X150682413Y-56816426D01*
X150878955Y-56685101D01*
X151046101Y-56517955D01*
X151177426Y-56321413D01*
X151267884Y-56103027D01*
X151314000Y-55871190D01*
X151314000Y-55634810D01*
X162630000Y-55634810D01*
X162630000Y-55871190D01*
X162676116Y-56103027D01*
X162766574Y-56321413D01*
X162897899Y-56517955D01*
X163065045Y-56685101D01*
X163261587Y-56816426D01*
X163479973Y-56906884D01*
X163711810Y-56953000D01*
X163948190Y-56953000D01*
X164180027Y-56906884D01*
X164398413Y-56816426D01*
X164594955Y-56685101D01*
X164762101Y-56517955D01*
X164893426Y-56321413D01*
X164983884Y-56103027D01*
X165030000Y-55871190D01*
X165030000Y-55634810D01*
X164983884Y-55402973D01*
X164893426Y-55184587D01*
X164762101Y-54988045D01*
X164594955Y-54820899D01*
X164398413Y-54689574D01*
X164180027Y-54599116D01*
X163948190Y-54553000D01*
X163711810Y-54553000D01*
X163479973Y-54599116D01*
X163261587Y-54689574D01*
X163065045Y-54820899D01*
X162897899Y-54988045D01*
X162766574Y-55184587D01*
X162676116Y-55402973D01*
X162630000Y-55634810D01*
X151314000Y-55634810D01*
X151267884Y-55402973D01*
X151177426Y-55184587D01*
X151046101Y-54988045D01*
X150878955Y-54820899D01*
X150682413Y-54689574D01*
X150464027Y-54599116D01*
X150232190Y-54553000D01*
X149995810Y-54553000D01*
X149763973Y-54599116D01*
X149545587Y-54689574D01*
X149349045Y-54820899D01*
X149181899Y-54988045D01*
X149050574Y-55184587D01*
X148960116Y-55402973D01*
X148916949Y-55619984D01*
X145036630Y-59500303D01*
X145000750Y-59529749D01*
X144971304Y-59565629D01*
X144971300Y-59565633D01*
X144883220Y-59672959D01*
X144795888Y-59836346D01*
X144742109Y-60013631D01*
X144723951Y-60198000D01*
X144728501Y-60244199D01*
X144728500Y-64271615D01*
X144605574Y-64455587D01*
X144515116Y-64673973D01*
X144469000Y-64905810D01*
X143882206Y-64905810D01*
X144020955Y-64813101D01*
X144188101Y-64645955D01*
X144319426Y-64449413D01*
X144409884Y-64231027D01*
X144456000Y-63999190D01*
X144456000Y-63762810D01*
X144409884Y-63530973D01*
X144319426Y-63312587D01*
X144196500Y-63128615D01*
X144196500Y-57793567D01*
X148596017Y-53394051D01*
X148813027Y-53350884D01*
X149031413Y-53260426D01*
X149227955Y-53129101D01*
X149395101Y-52961955D01*
X149526426Y-52765413D01*
X149616884Y-52547027D01*
X149663000Y-52315190D01*
X149663000Y-52078810D01*
X149616884Y-51846973D01*
X149526426Y-51628587D01*
X149395101Y-51432045D01*
X149227955Y-51264899D01*
X149031413Y-51133574D01*
X148813027Y-51043116D01*
X148581190Y-50997000D01*
X148344810Y-50997000D01*
X148112973Y-51043116D01*
X147894587Y-51133574D01*
X147698045Y-51264899D01*
X147530899Y-51432045D01*
X147399574Y-51628587D01*
X147309116Y-51846973D01*
X147265949Y-52063983D01*
X142623630Y-56706303D01*
X142587750Y-56735749D01*
X142558304Y-56771629D01*
X142558300Y-56771633D01*
X142470220Y-56878959D01*
X142382888Y-57042346D01*
X142329109Y-57219631D01*
X142310951Y-57404000D01*
X142315501Y-57450199D01*
X142315500Y-63128615D01*
X142192574Y-63312587D01*
X142102116Y-63530973D01*
X142056000Y-63762810D01*
X116345000Y-63762810D01*
X116345000Y-57539810D01*
X139516000Y-57539810D01*
X139516000Y-57776190D01*
X139562116Y-58008027D01*
X139652574Y-58226413D01*
X139783899Y-58422955D01*
X139951045Y-58590101D01*
X140147587Y-58721426D01*
X140365973Y-58811884D01*
X140597810Y-58858000D01*
X140834190Y-58858000D01*
X141066027Y-58811884D01*
X141284413Y-58721426D01*
X141480955Y-58590101D01*
X141648101Y-58422955D01*
X141779426Y-58226413D01*
X141869884Y-58008027D01*
X141916000Y-57776190D01*
X141916000Y-57539810D01*
X141869884Y-57307973D01*
X141779426Y-57089587D01*
X141648101Y-56893045D01*
X141480955Y-56725899D01*
X141284413Y-56594574D01*
X141066027Y-56504116D01*
X140834190Y-56458000D01*
X140597810Y-56458000D01*
X140365973Y-56504116D01*
X140147587Y-56594574D01*
X139951045Y-56725899D01*
X139783899Y-56893045D01*
X139652574Y-57089587D01*
X139562116Y-57307973D01*
X139516000Y-57539810D01*
X116345000Y-57539810D01*
X116345000Y-43828000D01*
X138025153Y-43828000D01*
X137919045Y-43898899D01*
X137919045Y-43898899D01*
G37*
X137919045Y-43898899D02*
X137751899Y-44066045D01*
X137620574Y-44262587D01*
X137530116Y-44480973D01*
X137484000Y-44712810D01*
X137484000Y-44949190D01*
X137530116Y-45181027D01*
X137620574Y-45399413D01*
X137751899Y-45595955D01*
X137919045Y-45763101D01*
X138115587Y-45894426D01*
X138333973Y-45984884D01*
X138565810Y-46031000D01*
X138802190Y-46031000D01*
X139034027Y-45984884D01*
X139252413Y-45894426D01*
X139448955Y-45763101D01*
X139616101Y-45595955D01*
X139747426Y-45399413D01*
X139837884Y-45181027D01*
X139884000Y-44949190D01*
X139884000Y-44712810D01*
X139837884Y-44480973D01*
X139747426Y-44262587D01*
X139616101Y-44066045D01*
X139448955Y-43898899D01*
X139342847Y-43828000D01*
X147768944Y-43828000D01*
X147657899Y-43939045D01*
X147526574Y-44135587D01*
X147436116Y-44353973D01*
X147390000Y-44585810D01*
X147390000Y-44822190D01*
X147436116Y-45054027D01*
X147526574Y-45272413D01*
X147657899Y-45468955D01*
X147825045Y-45636101D01*
X148021587Y-45767426D01*
X148239973Y-45857884D01*
X148471810Y-45904000D01*
X148708190Y-45904000D01*
X148940027Y-45857884D01*
X149158413Y-45767426D01*
X149354955Y-45636101D01*
X149522101Y-45468955D01*
X149653426Y-45272413D01*
X149743884Y-45054027D01*
X149790000Y-44822190D01*
X149790000Y-44585810D01*
X149743884Y-44353973D01*
X149653426Y-44135587D01*
X149522101Y-43939045D01*
X149411056Y-43828000D01*
X173723000Y-43828000D01*
X173723001Y-89395000D01*
X116345000Y-89395000D01*
X116345000Y-86241810D01*
X150946000Y-86241810D01*
X150946000Y-86478190D01*
X150992116Y-86710027D01*
X151082574Y-86928413D01*
X151213899Y-87124955D01*
X151381045Y-87292101D01*
X151577587Y-87423426D01*
X151795973Y-87513884D01*
X152027810Y-87560000D01*
X152264190Y-87560000D01*
X152496027Y-87513884D01*
X152714413Y-87423426D01*
X152910955Y-87292101D01*
X153078101Y-87124955D01*
X153209426Y-86928413D01*
X153299884Y-86710027D01*
X153346000Y-86478190D01*
X153346000Y-86241810D01*
X153299884Y-86009973D01*
X153209426Y-85791587D01*
X153078101Y-85595045D01*
X152910955Y-85427899D01*
X152714413Y-85296574D01*
X152496027Y-85206116D01*
X152264190Y-85160000D01*
X152027810Y-85160000D01*
X151795973Y-85206116D01*
X151577587Y-85296574D01*
X151381045Y-85427899D01*
X151213899Y-85595045D01*
X151082574Y-85791587D01*
X150992116Y-86009973D01*
X150946000Y-86241810D01*
X116345000Y-86241810D01*
X116345000Y-75573810D01*
X146628000Y-75573810D01*
X146628000Y-75810190D01*
X146674116Y-76042027D01*
X146760500Y-76250577D01*
X146760500Y-76430882D01*
X146762205Y-76448189D01*
X146755951Y-76511685D01*
X146774109Y-76696054D01*
X146827888Y-76873339D01*
X146915220Y-77036726D01*
X147003300Y-77144052D01*
X147961617Y-78102370D01*
X147991064Y-78138251D01*
X148026944Y-78167697D01*
X148026947Y-78167700D01*
X148108898Y-78234955D01*
X148134273Y-78255780D01*
X148297660Y-78343112D01*
X148474945Y-78396891D01*
X148613118Y-78410500D01*
X148613125Y-78410500D01*
X148659314Y-78415049D01*
X148705503Y-78410500D01*
X161807615Y-78410500D01*
X161991587Y-78533426D01*
X162209973Y-78623884D01*
X162441810Y-78670000D01*
X162678190Y-78670000D01*
X162910027Y-78623884D01*
X163128413Y-78533426D01*
X163324955Y-78402101D01*
X163492101Y-78234955D01*
X163623426Y-78038413D01*
X163713884Y-77820027D01*
X163760000Y-77588190D01*
X163760000Y-77351810D01*
X163713884Y-77119973D01*
X163623426Y-76901587D01*
X163492101Y-76705045D01*
X163324955Y-76537899D01*
X163128413Y-76406574D01*
X162910027Y-76316116D01*
X162678190Y-76270000D01*
X162441810Y-76270000D01*
X162209973Y-76316116D01*
X161991587Y-76406574D01*
X161807615Y-76529500D01*
X149048883Y-76529500D01*
X148846713Y-76327331D01*
X148891426Y-76260413D01*
X148981884Y-76042027D01*
X149028000Y-75810190D01*
X149028000Y-75573810D01*
X148981884Y-75341973D01*
X148891426Y-75123587D01*
X148856830Y-75071810D01*
X152730000Y-75071810D01*
X152730000Y-75308190D01*
X152776116Y-75540027D01*
X152866574Y-75758413D01*
X152997899Y-75954955D01*
X153165045Y-76122101D01*
X153361587Y-76253426D01*
X153579973Y-76343884D01*
X153811810Y-76390000D01*
X154048190Y-76390000D01*
X154280027Y-76343884D01*
X154498413Y-76253426D01*
X154694955Y-76122101D01*
X154862101Y-75954955D01*
X154993426Y-75758413D01*
X155083884Y-75540027D01*
X155130000Y-75308190D01*
X155130000Y-75071810D01*
X155083884Y-74839973D01*
X154993426Y-74621587D01*
X154862101Y-74425045D01*
X154694955Y-74257899D01*
X154498413Y-74126574D01*
X154280027Y-74036116D01*
X154048190Y-73990000D01*
X153811810Y-73990000D01*
X153579973Y-74036116D01*
X153361587Y-74126574D01*
X153165045Y-74257899D01*
X152997899Y-74425045D01*
X152866574Y-74621587D01*
X152776116Y-74839973D01*
X152730000Y-75071810D01*
X148856830Y-75071810D01*
X148760101Y-74927045D01*
X148592955Y-74759899D01*
X148396413Y-74628574D01*
X148178027Y-74538116D01*
X147946190Y-74492000D01*
X147709810Y-74492000D01*
X147477973Y-74538116D01*
X147259587Y-74628574D01*
X147063045Y-74759899D01*
X146895899Y-74927045D01*
X146764574Y-75123587D01*
X146674116Y-75341973D01*
X146628000Y-75573810D01*
X116345000Y-75573810D01*
X116345000Y-72526840D01*
X125925970Y-72526840D01*
X125925970Y-72763220D01*
X125972086Y-72995057D01*
X126062544Y-73213443D01*
X126193869Y-73409985D01*
X126361015Y-73577131D01*
X126557557Y-73708456D01*
X126775943Y-73798914D01*
X127007780Y-73845030D01*
X127244160Y-73845030D01*
X127475997Y-73798914D01*
X127694383Y-73708456D01*
X127890925Y-73577131D01*
X128058071Y-73409985D01*
X128189396Y-73213443D01*
X128279854Y-72995057D01*
X128325970Y-72763220D01*
X128325970Y-72526840D01*
X128279854Y-72295003D01*
X128270248Y-72271810D01*
X132150000Y-72271810D01*
X132150000Y-72508190D01*
X132196116Y-72740027D01*
X132286574Y-72958413D01*
X132417899Y-73154955D01*
X132585045Y-73322101D01*
X132781587Y-73453426D01*
X132999973Y-73543884D01*
X133231810Y-73590000D01*
X133468190Y-73590000D01*
X133700027Y-73543884D01*
X133918413Y-73453426D01*
X134114955Y-73322101D01*
X134282101Y-73154955D01*
X134384429Y-73001810D01*
X146914000Y-73001810D01*
X146914000Y-73238190D01*
X146960116Y-73470027D01*
X147050574Y-73688413D01*
X147181899Y-73884955D01*
X147349045Y-74052101D01*
X147545587Y-74183426D01*
X147763973Y-74273884D01*
X147995810Y-74320000D01*
X148232190Y-74320000D01*
X148464027Y-74273884D01*
X148682413Y-74183426D01*
X148878955Y-74052101D01*
X149046101Y-73884955D01*
X149177426Y-73688413D01*
X149267884Y-73470027D01*
X149314000Y-73238190D01*
X149314000Y-73001810D01*
X149267884Y-72769973D01*
X149177426Y-72551587D01*
X149046101Y-72355045D01*
X148878955Y-72187899D01*
X148682413Y-72056574D01*
X148464027Y-71966116D01*
X148232190Y-71920000D01*
X147995810Y-71920000D01*
X147763973Y-71966116D01*
X147545587Y-72056574D01*
X147349045Y-72187899D01*
X147181899Y-72355045D01*
X147050574Y-72551587D01*
X146960116Y-72769973D01*
X146914000Y-73001810D01*
X134384429Y-73001810D01*
X134413426Y-72958413D01*
X134503884Y-72740027D01*
X134550000Y-72508190D01*
X134550000Y-72271810D01*
X134503884Y-72039973D01*
X134413426Y-71821587D01*
X134282101Y-71625045D01*
X134114955Y-71457899D01*
X133918413Y-71326574D01*
X133700027Y-71236116D01*
X133468190Y-71190000D01*
X133231810Y-71190000D01*
X132999973Y-71236116D01*
X132781587Y-71326574D01*
X132585045Y-71457899D01*
X132417899Y-71625045D01*
X132286574Y-71821587D01*
X132196116Y-72039973D01*
X132150000Y-72271810D01*
X128270248Y-72271810D01*
X128189396Y-72076617D01*
X128058071Y-71880075D01*
X127890925Y-71712929D01*
X127694383Y-71581604D01*
X127475997Y-71491146D01*
X127244160Y-71445030D01*
X127007780Y-71445030D01*
X126775943Y-71491146D01*
X126557557Y-71581604D01*
X126361015Y-71712929D01*
X126193869Y-71880075D01*
X126062544Y-72076617D01*
X125972086Y-72295003D01*
X125925970Y-72526840D01*
X116345000Y-72526840D01*
X116345000Y-70620810D01*
X165678000Y-70620810D01*
X165678000Y-70857190D01*
X165724116Y-71089027D01*
X165814574Y-71307413D01*
X165945899Y-71503955D01*
X166113045Y-71671101D01*
X166309587Y-71802426D01*
X166527973Y-71892884D01*
X166759810Y-71939000D01*
X166996190Y-71939000D01*
X167228027Y-71892884D01*
X167446413Y-71802426D01*
X167642955Y-71671101D01*
X167810101Y-71503955D01*
X167941426Y-71307413D01*
X168031884Y-71089027D01*
X168078000Y-70857190D01*
X168078000Y-70620810D01*
X168031884Y-70388973D01*
X167941426Y-70170587D01*
X167810101Y-69974045D01*
X167642955Y-69806899D01*
X167446413Y-69675574D01*
X167228027Y-69585116D01*
X166996190Y-69539000D01*
X166759810Y-69539000D01*
X166527973Y-69585116D01*
X166309587Y-69675574D01*
X166113045Y-69806899D01*
X165945899Y-69974045D01*
X165814574Y-70170587D01*
X165724116Y-70388973D01*
X165678000Y-70620810D01*
X116345000Y-70620810D01*
X116345000Y-63762810D01*
X142056000Y-63762810D01*
X142056000Y-63999190D01*
X142102116Y-64231027D01*
X142192574Y-64449413D01*
X142323899Y-64645955D01*
X142491045Y-64813101D01*
X142687587Y-64944426D01*
X142905973Y-65034884D01*
X143137810Y-65081000D01*
X143374190Y-65081000D01*
X143606027Y-65034884D01*
X143824413Y-64944426D01*
X143882206Y-64905810D01*
X144469000Y-64905810D01*
X144469000Y-65142190D01*
X144515116Y-65374027D01*
X144605574Y-65592413D01*
X144736899Y-65788955D01*
X144904045Y-65956101D01*
X145100587Y-66087426D01*
X145318973Y-66177884D01*
X145550810Y-66224000D01*
X145787190Y-66224000D01*
X146019027Y-66177884D01*
X146237413Y-66087426D01*
X146433955Y-65956101D01*
X146601101Y-65788955D01*
X146732426Y-65592413D01*
X146822884Y-65374027D01*
X146869000Y-65142190D01*
X146869000Y-64905810D01*
X146822884Y-64673973D01*
X146732426Y-64455587D01*
X146609500Y-64271615D01*
X146609500Y-61984810D01*
X147644000Y-61984810D01*
X147644000Y-62221190D01*
X147690116Y-62453027D01*
X147780574Y-62671413D01*
X147911899Y-62867955D01*
X148079045Y-63035101D01*
X148275587Y-63166426D01*
X148493973Y-63256884D01*
X148710984Y-63300051D01*
X152464303Y-67053371D01*
X152493749Y-67089251D01*
X152529629Y-67118697D01*
X152529632Y-67118700D01*
X152611583Y-67185955D01*
X152636958Y-67206780D01*
X152800345Y-67294112D01*
X152977630Y-67347891D01*
X153115803Y-67361500D01*
X153115810Y-67361500D01*
X153161999Y-67366049D01*
X153208188Y-67361500D01*
X154568615Y-67361500D01*
X154752587Y-67484426D01*
X154970973Y-67574884D01*
X155202810Y-67621000D01*
X155439190Y-67621000D01*
X155671027Y-67574884D01*
X155889413Y-67484426D01*
X156085955Y-67353101D01*
X156253101Y-67185955D01*
X156384426Y-66989413D01*
X156474884Y-66771027D01*
X156521000Y-66539190D01*
X156521000Y-66302810D01*
X156474884Y-66070973D01*
X156384426Y-65852587D01*
X156253101Y-65656045D01*
X156085955Y-65488899D01*
X155889413Y-65357574D01*
X155671027Y-65267116D01*
X155439190Y-65221000D01*
X155202810Y-65221000D01*
X154970973Y-65267116D01*
X154752587Y-65357574D01*
X154568615Y-65480500D01*
X153551568Y-65480500D01*
X150041051Y-61969984D01*
X149997884Y-61752973D01*
X149907426Y-61534587D01*
X149776101Y-61338045D01*
X149608955Y-61170899D01*
X149412413Y-61039574D01*
X149194027Y-60949116D01*
X148962190Y-60903000D01*
X148725810Y-60903000D01*
X148493973Y-60949116D01*
X148275587Y-61039574D01*
X148079045Y-61170899D01*
X147911899Y-61338045D01*
X147780574Y-61534587D01*
X147690116Y-61752973D01*
X147644000Y-61984810D01*
X146609500Y-61984810D01*
X146609500Y-60587567D01*
X150247016Y-56950051D01*
X150464027Y-56906884D01*
X150682413Y-56816426D01*
X150878955Y-56685101D01*
X151046101Y-56517955D01*
X151177426Y-56321413D01*
X151267884Y-56103027D01*
X151314000Y-55871190D01*
X151314000Y-55634810D01*
X162630000Y-55634810D01*
X162630000Y-55871190D01*
X162676116Y-56103027D01*
X162766574Y-56321413D01*
X162897899Y-56517955D01*
X163065045Y-56685101D01*
X163261587Y-56816426D01*
X163479973Y-56906884D01*
X163711810Y-56953000D01*
X163948190Y-56953000D01*
X164180027Y-56906884D01*
X164398413Y-56816426D01*
X164594955Y-56685101D01*
X164762101Y-56517955D01*
X164893426Y-56321413D01*
X164983884Y-56103027D01*
X165030000Y-55871190D01*
X165030000Y-55634810D01*
X164983884Y-55402973D01*
X164893426Y-55184587D01*
X164762101Y-54988045D01*
X164594955Y-54820899D01*
X164398413Y-54689574D01*
X164180027Y-54599116D01*
X163948190Y-54553000D01*
X163711810Y-54553000D01*
X163479973Y-54599116D01*
X163261587Y-54689574D01*
X163065045Y-54820899D01*
X162897899Y-54988045D01*
X162766574Y-55184587D01*
X162676116Y-55402973D01*
X162630000Y-55634810D01*
X151314000Y-55634810D01*
X151267884Y-55402973D01*
X151177426Y-55184587D01*
X151046101Y-54988045D01*
X150878955Y-54820899D01*
X150682413Y-54689574D01*
X150464027Y-54599116D01*
X150232190Y-54553000D01*
X149995810Y-54553000D01*
X149763973Y-54599116D01*
X149545587Y-54689574D01*
X149349045Y-54820899D01*
X149181899Y-54988045D01*
X149050574Y-55184587D01*
X148960116Y-55402973D01*
X148916949Y-55619984D01*
X145036630Y-59500303D01*
X145000750Y-59529749D01*
X144971304Y-59565629D01*
X144971300Y-59565633D01*
X144883220Y-59672959D01*
X144795888Y-59836346D01*
X144742109Y-60013631D01*
X144723951Y-60198000D01*
X144728501Y-60244199D01*
X144728500Y-64271615D01*
X144605574Y-64455587D01*
X144515116Y-64673973D01*
X144469000Y-64905810D01*
X143882206Y-64905810D01*
X144020955Y-64813101D01*
X144188101Y-64645955D01*
X144319426Y-64449413D01*
X144409884Y-64231027D01*
X144456000Y-63999190D01*
X144456000Y-63762810D01*
X144409884Y-63530973D01*
X144319426Y-63312587D01*
X144196500Y-63128615D01*
X144196500Y-57793567D01*
X148596017Y-53394051D01*
X148813027Y-53350884D01*
X149031413Y-53260426D01*
X149227955Y-53129101D01*
X149395101Y-52961955D01*
X149526426Y-52765413D01*
X149616884Y-52547027D01*
X149663000Y-52315190D01*
X149663000Y-52078810D01*
X149616884Y-51846973D01*
X149526426Y-51628587D01*
X149395101Y-51432045D01*
X149227955Y-51264899D01*
X149031413Y-51133574D01*
X148813027Y-51043116D01*
X148581190Y-50997000D01*
X148344810Y-50997000D01*
X148112973Y-51043116D01*
X147894587Y-51133574D01*
X147698045Y-51264899D01*
X147530899Y-51432045D01*
X147399574Y-51628587D01*
X147309116Y-51846973D01*
X147265949Y-52063983D01*
X142623630Y-56706303D01*
X142587750Y-56735749D01*
X142558304Y-56771629D01*
X142558300Y-56771633D01*
X142470220Y-56878959D01*
X142382888Y-57042346D01*
X142329109Y-57219631D01*
X142310951Y-57404000D01*
X142315501Y-57450199D01*
X142315500Y-63128615D01*
X142192574Y-63312587D01*
X142102116Y-63530973D01*
X142056000Y-63762810D01*
X116345000Y-63762810D01*
X116345000Y-57539810D01*
X139516000Y-57539810D01*
X139516000Y-57776190D01*
X139562116Y-58008027D01*
X139652574Y-58226413D01*
X139783899Y-58422955D01*
X139951045Y-58590101D01*
X140147587Y-58721426D01*
X140365973Y-58811884D01*
X140597810Y-58858000D01*
X140834190Y-58858000D01*
X141066027Y-58811884D01*
X141284413Y-58721426D01*
X141480955Y-58590101D01*
X141648101Y-58422955D01*
X141779426Y-58226413D01*
X141869884Y-58008027D01*
X141916000Y-57776190D01*
X141916000Y-57539810D01*
X141869884Y-57307973D01*
X141779426Y-57089587D01*
X141648101Y-56893045D01*
X141480955Y-56725899D01*
X141284413Y-56594574D01*
X141066027Y-56504116D01*
X140834190Y-56458000D01*
X140597810Y-56458000D01*
X140365973Y-56504116D01*
X140147587Y-56594574D01*
X139951045Y-56725899D01*
X139783899Y-56893045D01*
X139652574Y-57089587D01*
X139562116Y-57307973D01*
X139516000Y-57539810D01*
X116345000Y-57539810D01*
X116345000Y-43828000D01*
X138025153Y-43828000D01*
X137919045Y-43898899D01*
M02*
