M48
; DRILL file {KiCad (5.1.2)-2} date 20.8.2019 18.16.25
; FORMAT={-:-/ absolute / metric / decimal}
; #@! TF.CreationDate,2019-08-20T18:16:25+03:00
; #@! TF.GenerationSoftware,Kicad,Pcbnew,(5.1.2)-2
; #@! TF.FileFunction,Plated,1,4,PTH
FMAT,2
METRIC
T1C0.500
%
G90
G05
T1
X126.238Y-48.006
X127.126Y-72.645
X127.254Y-69.85
X132.588Y-70.612
X133.35Y-72.39
X138.684Y-44.831
X138.785Y-48.921
X140.716Y-57.658
X143.256Y-63.881
X145.669Y-65.024
X147.828Y-75.692
X148.114Y-73.12
X148.336Y-47.879
X148.399Y-69.278
X148.463Y-52.197
X148.59Y-44.704
X148.844Y-62.103
X149.727Y-59.43
X150.114Y-55.753
X152.146Y-86.36
X153.93Y-75.19
X155.321Y-66.421
X162.179Y-84.201
X162.56Y-77.47
X163.794Y-65.568
X163.83Y-55.753
X166.878Y-70.739
T0
M30
