M48
; DRILL file {KiCad (5.1.2)-2} date 9.12.2019 13.21.01
; FORMAT={-:-/ absolute / metric / decimal}
; #@! TF.CreationDate,2019-12-09T13:21:01+02:00
; #@! TF.GenerationSoftware,Kicad,Pcbnew,(5.1.2)-2
; #@! TF.FileFunction,Plated,1,2,PTH
FMAT,2
METRIC
T1C0.500
T2C1.000
T3C2.000
%
G90
G05
T1
X120.904Y-101.854
X120.904Y-106.807
X122.904Y-101.854
X122.904Y-106.807
X124.904Y-101.854
X124.904Y-106.807
X125.857Y-117.221
X125.857Y-119.221
X125.857Y-121.221
X127.857Y-117.221
X127.857Y-119.221
X127.857Y-121.221
X129.857Y-117.221
X129.857Y-119.221
X129.857Y-121.221
X135.255Y-112.014
X135.255Y-114.681
X150.622Y-112.268
X150.622Y-114.268
X150.622Y-116.268
X150.876Y-123.444
X150.876Y-125.444
X152.622Y-112.268
X152.622Y-114.268
X152.622Y-116.268
X152.876Y-123.444
X152.876Y-125.444
X154.622Y-112.268
X154.622Y-114.268
X154.622Y-116.268
T2
X134.366Y-101.854
X134.366Y-104.354
X134.366Y-106.854
X148.866Y-101.854
X148.866Y-106.854
T3
G00X141.616Y-98.754
M15
G01X142.116Y-98.754
M16
G05
G00X141.616Y-109.954
M15
G01X142.116Y-109.954
M16
G05
T0
M30
