G04 #@! TF.GenerationSoftware,KiCad,Pcbnew,(5.1.2)-2*
G04 #@! TF.CreationDate,2019-12-09T13:21:08+02:00*
G04 #@! TF.ProjectId,front_encoder,66726f6e-745f-4656-9e63-6f6465722e6b,rev?*
G04 #@! TF.SameCoordinates,Original*
G04 #@! TF.FileFunction,Copper,L1,Top*
G04 #@! TF.FilePolarity,Positive*
%FSLAX46Y46*%
G04 Gerber Fmt 4.6, Leading zero omitted, Abs format (unit mm)*
G04 Created by KiCad (PCBNEW (5.1.2)-2) date 2019-12-09 13:21:08*
%MOMM*%
%LPD*%
G04 APERTURE LIST*
%ADD10C,2.000000*%
%ADD11R,3.000000X2.500000*%
%ADD12R,2.000000X2.000000*%
%ADD13C,1.000000*%
%ADD14C,0.381000*%
%ADD15C,0.254000*%
G04 APERTURE END LIST*
D10*
X148866000Y-106854000D03*
X148866000Y-101854000D03*
D11*
X141866000Y-109954000D03*
X141866000Y-98754000D03*
D10*
X134366000Y-106854000D03*
X134366000Y-104354000D03*
D12*
X134366000Y-101854000D03*
D13*
X125857000Y-117221000D03*
X127857000Y-117221000D03*
X129857000Y-117221000D03*
X125857000Y-119221000D03*
X127857000Y-119221000D03*
X129857000Y-119221000D03*
X125857000Y-121221000D03*
X127857000Y-121221000D03*
X129857000Y-121221000D03*
X120904000Y-106807000D03*
X150876000Y-123444000D03*
X150622000Y-112268000D03*
X152622000Y-112268000D03*
X154622000Y-112268000D03*
X150622000Y-114268000D03*
X152622000Y-114268000D03*
X154622000Y-114268000D03*
X150622000Y-116268000D03*
X152622000Y-116268000D03*
X154622000Y-116268000D03*
X152876000Y-123444000D03*
X150876000Y-125444000D03*
X152876000Y-125444000D03*
X122904000Y-106807000D03*
X124904000Y-106807000D03*
X120904000Y-101854000D03*
X122904000Y-101854000D03*
X124904000Y-101854000D03*
X135255000Y-112014000D03*
X135255000Y-114681000D03*
D14*
X148866000Y-111484000D02*
X148866000Y-106854000D01*
X150876000Y-114554000D02*
X150876000Y-123444000D01*
X148866000Y-111484000D02*
X148866000Y-112544000D01*
X148866000Y-112544000D02*
X150876000Y-114554000D01*
X148866000Y-112754000D02*
X148866000Y-111484000D01*
X129286000Y-104394000D02*
X130556000Y-105664000D01*
X120396000Y-104394000D02*
X129286000Y-104394000D01*
X130556000Y-105664000D02*
X130556000Y-113284000D01*
X130556000Y-113284000D02*
X131826000Y-114554000D01*
X131826000Y-114554000D02*
X147066000Y-114554000D01*
X147066000Y-114554000D02*
X148866000Y-112754000D01*
D15*
G36*
X161967102Y-92638552D02*
G01*
X161726552Y-92879102D01*
X161537553Y-93161959D01*
X161407368Y-93476253D01*
X161341000Y-93809905D01*
X161341000Y-94150095D01*
X161407368Y-94483747D01*
X161537553Y-94798041D01*
X161726552Y-95080898D01*
X161967102Y-95321448D01*
X162249959Y-95510447D01*
X162564253Y-95640632D01*
X162897905Y-95707000D01*
X163238095Y-95707000D01*
X163571747Y-95640632D01*
X163886041Y-95510447D01*
X164168898Y-95321448D01*
X164409448Y-95080898D01*
X164577000Y-94830139D01*
X164577001Y-124498863D01*
X164409448Y-124248102D01*
X164168898Y-124007552D01*
X163886041Y-123818553D01*
X163571747Y-123688368D01*
X163238095Y-123622000D01*
X162897905Y-123622000D01*
X162564253Y-123688368D01*
X162249959Y-123818553D01*
X161967102Y-124007552D01*
X161726552Y-124248102D01*
X161537553Y-124530959D01*
X161407368Y-124845253D01*
X161341000Y-125178905D01*
X161341000Y-125519095D01*
X161407368Y-125852747D01*
X161537553Y-126167041D01*
X161726552Y-126449898D01*
X161967102Y-126690448D01*
X162217861Y-126858000D01*
X116293139Y-126858000D01*
X116543898Y-126690448D01*
X116784448Y-126449898D01*
X116973447Y-126167041D01*
X117103632Y-125852747D01*
X117170000Y-125519095D01*
X117170000Y-125178905D01*
X117103632Y-124845253D01*
X116973447Y-124530959D01*
X116784448Y-124248102D01*
X116543898Y-124007552D01*
X116261041Y-123818553D01*
X115946747Y-123688368D01*
X115613095Y-123622000D01*
X115272905Y-123622000D01*
X114939253Y-123688368D01*
X114624959Y-123818553D01*
X114342102Y-124007552D01*
X114101552Y-124248102D01*
X113934000Y-124498861D01*
X113934000Y-108704000D01*
X139635483Y-108704000D01*
X139635483Y-111204000D01*
X139649520Y-111346517D01*
X139691090Y-111483557D01*
X139758597Y-111609853D01*
X139849446Y-111720554D01*
X139960147Y-111811403D01*
X140086443Y-111878910D01*
X140223483Y-111920480D01*
X140366000Y-111934517D01*
X143366000Y-111934517D01*
X143508517Y-111920480D01*
X143645557Y-111878910D01*
X143771853Y-111811403D01*
X143882554Y-111720554D01*
X143973403Y-111609853D01*
X144040910Y-111483557D01*
X144082480Y-111346517D01*
X144096517Y-111204000D01*
X144096517Y-108704000D01*
X144082480Y-108561483D01*
X144040910Y-108424443D01*
X143973403Y-108298147D01*
X143882554Y-108187446D01*
X143771853Y-108096597D01*
X143645557Y-108029090D01*
X143514758Y-107989413D01*
X147910192Y-107989413D01*
X148005956Y-108253814D01*
X148295571Y-108394704D01*
X148607108Y-108476384D01*
X148928595Y-108495718D01*
X149247675Y-108451961D01*
X149552088Y-108346795D01*
X149726044Y-108253814D01*
X149821808Y-107989413D01*
X148866000Y-107033605D01*
X147910192Y-107989413D01*
X143514758Y-107989413D01*
X143508517Y-107987520D01*
X143366000Y-107973483D01*
X140366000Y-107973483D01*
X140223483Y-107987520D01*
X140086443Y-108029090D01*
X139960147Y-108096597D01*
X139849446Y-108187446D01*
X139758597Y-108298147D01*
X139691090Y-108424443D01*
X139649520Y-108561483D01*
X139635483Y-108704000D01*
X113934000Y-108704000D01*
X113934000Y-100854000D01*
X132635483Y-100854000D01*
X132635483Y-102854000D01*
X132649520Y-102996517D01*
X132691090Y-103133557D01*
X132758597Y-103259853D01*
X132849446Y-103370554D01*
X132911852Y-103421769D01*
X132835553Y-103535959D01*
X132705368Y-103850253D01*
X132639000Y-104183905D01*
X132639000Y-104524095D01*
X132705368Y-104857747D01*
X132835553Y-105172041D01*
X133024552Y-105454898D01*
X133173654Y-105604000D01*
X133024552Y-105753102D01*
X132835553Y-106035959D01*
X132705368Y-106350253D01*
X132639000Y-106683905D01*
X132639000Y-107024095D01*
X132705368Y-107357747D01*
X132835553Y-107672041D01*
X133024552Y-107954898D01*
X133265102Y-108195448D01*
X133547959Y-108384447D01*
X133862253Y-108514632D01*
X134195905Y-108581000D01*
X134536095Y-108581000D01*
X134869747Y-108514632D01*
X135184041Y-108384447D01*
X135466898Y-108195448D01*
X135707448Y-107954898D01*
X135896447Y-107672041D01*
X136026632Y-107357747D01*
X136093000Y-107024095D01*
X136093000Y-106916595D01*
X147224282Y-106916595D01*
X147268039Y-107235675D01*
X147373205Y-107540088D01*
X147466186Y-107714044D01*
X147730587Y-107809808D01*
X148686395Y-106854000D01*
X149045605Y-106854000D01*
X150001413Y-107809808D01*
X150265814Y-107714044D01*
X150406704Y-107424429D01*
X150488384Y-107112892D01*
X150507718Y-106791405D01*
X150463961Y-106472325D01*
X150358795Y-106167912D01*
X150265814Y-105993956D01*
X150001413Y-105898192D01*
X149045605Y-106854000D01*
X148686395Y-106854000D01*
X147730587Y-105898192D01*
X147466186Y-105993956D01*
X147325296Y-106283571D01*
X147243616Y-106595108D01*
X147224282Y-106916595D01*
X136093000Y-106916595D01*
X136093000Y-106683905D01*
X136026632Y-106350253D01*
X135896447Y-106035959D01*
X135707448Y-105753102D01*
X135672933Y-105718587D01*
X147910192Y-105718587D01*
X148866000Y-106674395D01*
X149821808Y-105718587D01*
X149726044Y-105454186D01*
X149436429Y-105313296D01*
X149124892Y-105231616D01*
X148803405Y-105212282D01*
X148484325Y-105256039D01*
X148179912Y-105361205D01*
X148005956Y-105454186D01*
X147910192Y-105718587D01*
X135672933Y-105718587D01*
X135558346Y-105604000D01*
X135707448Y-105454898D01*
X135896447Y-105172041D01*
X136026632Y-104857747D01*
X136093000Y-104524095D01*
X136093000Y-104183905D01*
X136026632Y-103850253D01*
X135896447Y-103535959D01*
X135820148Y-103421769D01*
X135882554Y-103370554D01*
X135973403Y-103259853D01*
X136040910Y-103133557D01*
X136082480Y-102996517D01*
X136096517Y-102854000D01*
X136096517Y-101683905D01*
X147139000Y-101683905D01*
X147139000Y-102024095D01*
X147205368Y-102357747D01*
X147335553Y-102672041D01*
X147524552Y-102954898D01*
X147765102Y-103195448D01*
X148047959Y-103384447D01*
X148362253Y-103514632D01*
X148695905Y-103581000D01*
X149036095Y-103581000D01*
X149369747Y-103514632D01*
X149684041Y-103384447D01*
X149966898Y-103195448D01*
X150207448Y-102954898D01*
X150396447Y-102672041D01*
X150526632Y-102357747D01*
X150593000Y-102024095D01*
X150593000Y-101683905D01*
X150526632Y-101350253D01*
X150396447Y-101035959D01*
X150207448Y-100753102D01*
X149966898Y-100512552D01*
X149684041Y-100323553D01*
X149369747Y-100193368D01*
X149036095Y-100127000D01*
X148695905Y-100127000D01*
X148362253Y-100193368D01*
X148047959Y-100323553D01*
X147765102Y-100512552D01*
X147524552Y-100753102D01*
X147335553Y-101035959D01*
X147205368Y-101350253D01*
X147139000Y-101683905D01*
X136096517Y-101683905D01*
X136096517Y-100854000D01*
X136082480Y-100711483D01*
X136040910Y-100574443D01*
X135973403Y-100448147D01*
X135882554Y-100337446D01*
X135771853Y-100246597D01*
X135645557Y-100179090D01*
X135508517Y-100137520D01*
X135366000Y-100123483D01*
X133366000Y-100123483D01*
X133223483Y-100137520D01*
X133086443Y-100179090D01*
X132960147Y-100246597D01*
X132849446Y-100337446D01*
X132758597Y-100448147D01*
X132691090Y-100574443D01*
X132649520Y-100711483D01*
X132635483Y-100854000D01*
X113934000Y-100854000D01*
X113934000Y-97504000D01*
X139635483Y-97504000D01*
X139635483Y-100004000D01*
X139649520Y-100146517D01*
X139691090Y-100283557D01*
X139758597Y-100409853D01*
X139849446Y-100520554D01*
X139960147Y-100611403D01*
X140086443Y-100678910D01*
X140223483Y-100720480D01*
X140366000Y-100734517D01*
X143366000Y-100734517D01*
X143508517Y-100720480D01*
X143645557Y-100678910D01*
X143771853Y-100611403D01*
X143882554Y-100520554D01*
X143973403Y-100409853D01*
X144040910Y-100283557D01*
X144082480Y-100146517D01*
X144096517Y-100004000D01*
X144096517Y-97504000D01*
X144082480Y-97361483D01*
X144040910Y-97224443D01*
X143973403Y-97098147D01*
X143882554Y-96987446D01*
X143771853Y-96896597D01*
X143645557Y-96829090D01*
X143508517Y-96787520D01*
X143366000Y-96773483D01*
X140366000Y-96773483D01*
X140223483Y-96787520D01*
X140086443Y-96829090D01*
X139960147Y-96896597D01*
X139849446Y-96987446D01*
X139758597Y-97098147D01*
X139691090Y-97224443D01*
X139649520Y-97361483D01*
X139635483Y-97504000D01*
X113934000Y-97504000D01*
X113934000Y-94830139D01*
X114101552Y-95080898D01*
X114342102Y-95321448D01*
X114624959Y-95510447D01*
X114939253Y-95640632D01*
X115272905Y-95707000D01*
X115613095Y-95707000D01*
X115946747Y-95640632D01*
X116261041Y-95510447D01*
X116543898Y-95321448D01*
X116784448Y-95080898D01*
X116973447Y-94798041D01*
X117103632Y-94483747D01*
X117170000Y-94150095D01*
X117170000Y-93809905D01*
X117103632Y-93476253D01*
X116973447Y-93161959D01*
X116784448Y-92879102D01*
X116543898Y-92638552D01*
X116293139Y-92471000D01*
X162217861Y-92471000D01*
X161967102Y-92638552D01*
X161967102Y-92638552D01*
G37*
X161967102Y-92638552D02*
X161726552Y-92879102D01*
X161537553Y-93161959D01*
X161407368Y-93476253D01*
X161341000Y-93809905D01*
X161341000Y-94150095D01*
X161407368Y-94483747D01*
X161537553Y-94798041D01*
X161726552Y-95080898D01*
X161967102Y-95321448D01*
X162249959Y-95510447D01*
X162564253Y-95640632D01*
X162897905Y-95707000D01*
X163238095Y-95707000D01*
X163571747Y-95640632D01*
X163886041Y-95510447D01*
X164168898Y-95321448D01*
X164409448Y-95080898D01*
X164577000Y-94830139D01*
X164577001Y-124498863D01*
X164409448Y-124248102D01*
X164168898Y-124007552D01*
X163886041Y-123818553D01*
X163571747Y-123688368D01*
X163238095Y-123622000D01*
X162897905Y-123622000D01*
X162564253Y-123688368D01*
X162249959Y-123818553D01*
X161967102Y-124007552D01*
X161726552Y-124248102D01*
X161537553Y-124530959D01*
X161407368Y-124845253D01*
X161341000Y-125178905D01*
X161341000Y-125519095D01*
X161407368Y-125852747D01*
X161537553Y-126167041D01*
X161726552Y-126449898D01*
X161967102Y-126690448D01*
X162217861Y-126858000D01*
X116293139Y-126858000D01*
X116543898Y-126690448D01*
X116784448Y-126449898D01*
X116973447Y-126167041D01*
X117103632Y-125852747D01*
X117170000Y-125519095D01*
X117170000Y-125178905D01*
X117103632Y-124845253D01*
X116973447Y-124530959D01*
X116784448Y-124248102D01*
X116543898Y-124007552D01*
X116261041Y-123818553D01*
X115946747Y-123688368D01*
X115613095Y-123622000D01*
X115272905Y-123622000D01*
X114939253Y-123688368D01*
X114624959Y-123818553D01*
X114342102Y-124007552D01*
X114101552Y-124248102D01*
X113934000Y-124498861D01*
X113934000Y-108704000D01*
X139635483Y-108704000D01*
X139635483Y-111204000D01*
X139649520Y-111346517D01*
X139691090Y-111483557D01*
X139758597Y-111609853D01*
X139849446Y-111720554D01*
X139960147Y-111811403D01*
X140086443Y-111878910D01*
X140223483Y-111920480D01*
X140366000Y-111934517D01*
X143366000Y-111934517D01*
X143508517Y-111920480D01*
X143645557Y-111878910D01*
X143771853Y-111811403D01*
X143882554Y-111720554D01*
X143973403Y-111609853D01*
X144040910Y-111483557D01*
X144082480Y-111346517D01*
X144096517Y-111204000D01*
X144096517Y-108704000D01*
X144082480Y-108561483D01*
X144040910Y-108424443D01*
X143973403Y-108298147D01*
X143882554Y-108187446D01*
X143771853Y-108096597D01*
X143645557Y-108029090D01*
X143514758Y-107989413D01*
X147910192Y-107989413D01*
X148005956Y-108253814D01*
X148295571Y-108394704D01*
X148607108Y-108476384D01*
X148928595Y-108495718D01*
X149247675Y-108451961D01*
X149552088Y-108346795D01*
X149726044Y-108253814D01*
X149821808Y-107989413D01*
X148866000Y-107033605D01*
X147910192Y-107989413D01*
X143514758Y-107989413D01*
X143508517Y-107987520D01*
X143366000Y-107973483D01*
X140366000Y-107973483D01*
X140223483Y-107987520D01*
X140086443Y-108029090D01*
X139960147Y-108096597D01*
X139849446Y-108187446D01*
X139758597Y-108298147D01*
X139691090Y-108424443D01*
X139649520Y-108561483D01*
X139635483Y-108704000D01*
X113934000Y-108704000D01*
X113934000Y-100854000D01*
X132635483Y-100854000D01*
X132635483Y-102854000D01*
X132649520Y-102996517D01*
X132691090Y-103133557D01*
X132758597Y-103259853D01*
X132849446Y-103370554D01*
X132911852Y-103421769D01*
X132835553Y-103535959D01*
X132705368Y-103850253D01*
X132639000Y-104183905D01*
X132639000Y-104524095D01*
X132705368Y-104857747D01*
X132835553Y-105172041D01*
X133024552Y-105454898D01*
X133173654Y-105604000D01*
X133024552Y-105753102D01*
X132835553Y-106035959D01*
X132705368Y-106350253D01*
X132639000Y-106683905D01*
X132639000Y-107024095D01*
X132705368Y-107357747D01*
X132835553Y-107672041D01*
X133024552Y-107954898D01*
X133265102Y-108195448D01*
X133547959Y-108384447D01*
X133862253Y-108514632D01*
X134195905Y-108581000D01*
X134536095Y-108581000D01*
X134869747Y-108514632D01*
X135184041Y-108384447D01*
X135466898Y-108195448D01*
X135707448Y-107954898D01*
X135896447Y-107672041D01*
X136026632Y-107357747D01*
X136093000Y-107024095D01*
X136093000Y-106916595D01*
X147224282Y-106916595D01*
X147268039Y-107235675D01*
X147373205Y-107540088D01*
X147466186Y-107714044D01*
X147730587Y-107809808D01*
X148686395Y-106854000D01*
X149045605Y-106854000D01*
X150001413Y-107809808D01*
X150265814Y-107714044D01*
X150406704Y-107424429D01*
X150488384Y-107112892D01*
X150507718Y-106791405D01*
X150463961Y-106472325D01*
X150358795Y-106167912D01*
X150265814Y-105993956D01*
X150001413Y-105898192D01*
X149045605Y-106854000D01*
X148686395Y-106854000D01*
X147730587Y-105898192D01*
X147466186Y-105993956D01*
X147325296Y-106283571D01*
X147243616Y-106595108D01*
X147224282Y-106916595D01*
X136093000Y-106916595D01*
X136093000Y-106683905D01*
X136026632Y-106350253D01*
X135896447Y-106035959D01*
X135707448Y-105753102D01*
X135672933Y-105718587D01*
X147910192Y-105718587D01*
X148866000Y-106674395D01*
X149821808Y-105718587D01*
X149726044Y-105454186D01*
X149436429Y-105313296D01*
X149124892Y-105231616D01*
X148803405Y-105212282D01*
X148484325Y-105256039D01*
X148179912Y-105361205D01*
X148005956Y-105454186D01*
X147910192Y-105718587D01*
X135672933Y-105718587D01*
X135558346Y-105604000D01*
X135707448Y-105454898D01*
X135896447Y-105172041D01*
X136026632Y-104857747D01*
X136093000Y-104524095D01*
X136093000Y-104183905D01*
X136026632Y-103850253D01*
X135896447Y-103535959D01*
X135820148Y-103421769D01*
X135882554Y-103370554D01*
X135973403Y-103259853D01*
X136040910Y-103133557D01*
X136082480Y-102996517D01*
X136096517Y-102854000D01*
X136096517Y-101683905D01*
X147139000Y-101683905D01*
X147139000Y-102024095D01*
X147205368Y-102357747D01*
X147335553Y-102672041D01*
X147524552Y-102954898D01*
X147765102Y-103195448D01*
X148047959Y-103384447D01*
X148362253Y-103514632D01*
X148695905Y-103581000D01*
X149036095Y-103581000D01*
X149369747Y-103514632D01*
X149684041Y-103384447D01*
X149966898Y-103195448D01*
X150207448Y-102954898D01*
X150396447Y-102672041D01*
X150526632Y-102357747D01*
X150593000Y-102024095D01*
X150593000Y-101683905D01*
X150526632Y-101350253D01*
X150396447Y-101035959D01*
X150207448Y-100753102D01*
X149966898Y-100512552D01*
X149684041Y-100323553D01*
X149369747Y-100193368D01*
X149036095Y-100127000D01*
X148695905Y-100127000D01*
X148362253Y-100193368D01*
X148047959Y-100323553D01*
X147765102Y-100512552D01*
X147524552Y-100753102D01*
X147335553Y-101035959D01*
X147205368Y-101350253D01*
X147139000Y-101683905D01*
X136096517Y-101683905D01*
X136096517Y-100854000D01*
X136082480Y-100711483D01*
X136040910Y-100574443D01*
X135973403Y-100448147D01*
X135882554Y-100337446D01*
X135771853Y-100246597D01*
X135645557Y-100179090D01*
X135508517Y-100137520D01*
X135366000Y-100123483D01*
X133366000Y-100123483D01*
X133223483Y-100137520D01*
X133086443Y-100179090D01*
X132960147Y-100246597D01*
X132849446Y-100337446D01*
X132758597Y-100448147D01*
X132691090Y-100574443D01*
X132649520Y-100711483D01*
X132635483Y-100854000D01*
X113934000Y-100854000D01*
X113934000Y-97504000D01*
X139635483Y-97504000D01*
X139635483Y-100004000D01*
X139649520Y-100146517D01*
X139691090Y-100283557D01*
X139758597Y-100409853D01*
X139849446Y-100520554D01*
X139960147Y-100611403D01*
X140086443Y-100678910D01*
X140223483Y-100720480D01*
X140366000Y-100734517D01*
X143366000Y-100734517D01*
X143508517Y-100720480D01*
X143645557Y-100678910D01*
X143771853Y-100611403D01*
X143882554Y-100520554D01*
X143973403Y-100409853D01*
X144040910Y-100283557D01*
X144082480Y-100146517D01*
X144096517Y-100004000D01*
X144096517Y-97504000D01*
X144082480Y-97361483D01*
X144040910Y-97224443D01*
X143973403Y-97098147D01*
X143882554Y-96987446D01*
X143771853Y-96896597D01*
X143645557Y-96829090D01*
X143508517Y-96787520D01*
X143366000Y-96773483D01*
X140366000Y-96773483D01*
X140223483Y-96787520D01*
X140086443Y-96829090D01*
X139960147Y-96896597D01*
X139849446Y-96987446D01*
X139758597Y-97098147D01*
X139691090Y-97224443D01*
X139649520Y-97361483D01*
X139635483Y-97504000D01*
X113934000Y-97504000D01*
X113934000Y-94830139D01*
X114101552Y-95080898D01*
X114342102Y-95321448D01*
X114624959Y-95510447D01*
X114939253Y-95640632D01*
X115272905Y-95707000D01*
X115613095Y-95707000D01*
X115946747Y-95640632D01*
X116261041Y-95510447D01*
X116543898Y-95321448D01*
X116784448Y-95080898D01*
X116973447Y-94798041D01*
X117103632Y-94483747D01*
X117170000Y-94150095D01*
X117170000Y-93809905D01*
X117103632Y-93476253D01*
X116973447Y-93161959D01*
X116784448Y-92879102D01*
X116543898Y-92638552D01*
X116293139Y-92471000D01*
X162217861Y-92471000D01*
X161967102Y-92638552D01*
M02*
